<svg width="3000" height="1700" viewBox="0 0 3000 1700" fill="none" xmlns="http://www.w3.org/2000/svg">
<path fill-rule="evenodd" clip-rule="evenodd" d="M2186.77 911.335C2186.69 910.418 2185.9 909.902 2184.77 909.902C2183.64 909.902 2182.94 910.302 2182.94 911.001C2182.94 911.635 2183.52 912.001 2184.69 912.268L2186.02 912.568C2187.69 912.934 2188.57 913.651 2188.57 914.95C2188.57 916.65 2187.15 917.666 2184.9 917.666C2182.72 917.666 2181.34 916.683 2181.26 914.75H2182.67C2182.7 915.816 2183.56 916.416 2184.99 916.416C2186.35 916.416 2187.07 915.983 2187.07 915.133C2187.07 914.75 2186.89 914.434 2186.54 914.217C2186.19 914 2185.47 913.784 2184.39 913.551C2182.17 913.084 2181.44 912.384 2181.44 911.101C2181.44 909.585 2182.79 908.652 2184.67 908.652C2186.99 908.652 2188.07 909.552 2188.19 911.351H2186.77V911.335ZM2177.12 828.066C2176.77 828.066 2176.45 828.032 2176.13 827.916V826.616C2176.4 826.7 2176.69 826.816 2176.97 826.816C2177.55 826.816 2177.95 826.533 2178.17 825.95L2178.72 824.567L2175.3 816.003H2176.9L2179.42 823.051H2179.45L2181.87 816.003H2183.37L2179.7 825.533C2178.95 827.533 2178.38 828.066 2177.12 828.066ZM2172.37 823.484C2171.62 824.367 2170.6 824.817 2169.33 824.817C2167.57 824.817 2166.48 823.95 2166.48 822.401C2166.48 821.635 2166.73 821.018 2167.23 820.568C2167.72 820.102 2168.87 819.769 2170.71 819.535C2171.96 819.385 2172.3 819.085 2172.3 818.469C2172.3 817.519 2171.72 817.053 2170.38 817.053C2168.98 817.053 2168.3 817.569 2168.23 818.686H2166.82C2166.92 816.77 2168.22 815.803 2170.48 815.803C2172.91 815.803 2173.7 816.77 2173.7 818.119V823.084C2173.7 823.401 2173.85 823.567 2174.15 823.567C2174.28 823.567 2174.45 823.534 2174.58 823.484V824.584C2174.31 824.734 2173.96 824.817 2173.56 824.817C2172.8 824.817 2172.37 824.384 2172.37 823.484ZM2172.28 820.168C2172.05 820.335 2171.66 820.468 2171.28 820.518L2169.83 820.735C2168.58 820.918 2167.98 821.401 2167.98 822.301C2167.98 823.101 2168.6 823.567 2169.65 823.567C2171.3 823.567 2172.28 822.601 2172.28 821.651V820.168ZM2167.06 836.633V839.215H2168.77V840.465H2167.06V845.863C2167.06 846.296 2167.19 846.513 2167.49 846.546C2167.78 846.563 2168.07 846.58 2168.38 846.58H2168.77V847.829H2167.61C2166.04 847.829 2165.64 847.329 2165.64 846.03V840.465H2164.18V839.215H2165.64V836.633H2167.06ZM2163.02 823.451H2162.98C2162.53 824.334 2161.52 824.817 2160.24 824.817C2157.82 824.817 2156.27 822.967 2156.27 820.285C2156.27 817.653 2157.72 815.803 2160.18 815.803C2161.3 815.803 2162.45 816.286 2162.98 817.153H2163.02V812.721H2164.43V824.617H2163.02V823.451ZM2160.34 817.053C2158.7 817.053 2157.77 818.336 2157.77 820.385C2157.77 822.201 2158.77 823.567 2160.43 823.567C2162.13 823.567 2163.07 822.218 2163.07 820.318C2163.07 818.369 2162.09 817.053 2160.34 817.053ZM2159.41 841.981H2157.94C2157.71 840.865 2156.94 840.265 2155.81 840.265C2154.06 840.265 2153.13 841.498 2153.13 843.631C2153.13 845.513 2154.08 846.78 2155.64 846.78C2157.01 846.78 2157.83 845.996 2158.01 844.68H2159.46C2159.14 846.829 2157.81 848.029 2155.66 848.029C2153.14 848.029 2151.63 846.33 2151.63 843.631C2151.63 840.831 2153.16 839.015 2155.69 839.015C2157.77 839.015 2159.18 840.015 2159.41 841.981ZM2149.5 871.025L2149.48 871.041H2147.98L2146.22 864.194H2146.2L2144.47 871.041H2142.93L2140.17 862.428H2141.74L2143.68 869.475H2143.72L2145.45 862.428H2147L2148.82 869.475H2148.83L2150.76 862.428H2152.23L2149.5 871.025ZM2143.84 820.835C2143.84 822.484 2144.86 823.567 2146.52 823.567C2147.79 823.567 2148.52 822.951 2148.76 821.884H2150.16C2149.77 823.801 2148.42 824.817 2146.47 824.817C2145.57 824.817 2144.81 824.617 2144.19 824.217C2142.93 823.384 2142.34 821.751 2142.34 820.252C2142.34 818.985 2142.71 817.936 2143.48 817.086C2144.24 816.236 2145.23 815.803 2146.39 815.803C2147.62 815.803 2148.59 816.253 2149.27 817.136C2149.96 818.019 2150.29 819.169 2150.29 820.568V820.735H2143.84V820.835ZM2148.79 819.485C2148.71 818.102 2147.69 817.053 2146.29 817.053C2144.96 817.053 2143.96 818.019 2143.84 819.485H2148.79ZM2145.3 842.098V847.829H2143.88V841.948C2143.88 840.998 2143.27 840.265 2142.12 840.265C2140.5 840.265 2139.58 841.348 2139.58 842.914V847.829H2138.17V839.215H2139.5V840.582H2139.53C2140.17 839.499 2141.07 839.015 2142.33 839.015C2144.42 839.015 2145.3 840.115 2145.3 842.098ZM2136.82 824.617L2133.62 816.003H2135.2L2137.62 823.184H2137.65L2140 816.003H2141.48L2138.34 824.617H2136.82ZM2135.63 841.331V846.296C2135.63 846.613 2135.78 846.78 2136.08 846.78C2136.21 846.78 2136.38 846.746 2136.51 846.696V847.796C2136.25 847.946 2135.9 848.029 2135.5 848.029C2134.73 848.029 2134.3 847.596 2134.3 846.696C2133.55 847.579 2132.53 848.029 2131.26 848.029C2129.5 848.029 2128.41 847.163 2128.41 845.613C2128.41 844.847 2128.66 844.23 2129.16 843.781C2129.65 843.314 2130.8 842.981 2132.65 842.748C2133.9 842.598 2134.23 842.298 2134.23 841.681C2134.23 840.732 2133.65 840.265 2132.31 840.265C2130.91 840.265 2130.23 840.781 2130.16 841.898H2128.75C2128.85 839.982 2130.15 839.015 2132.41 839.015C2134.85 839.015 2135.63 839.982 2135.63 841.331ZM2134.21 843.381C2133.98 843.547 2133.6 843.681 2133.21 843.731L2131.76 843.947C2130.51 844.13 2129.91 844.614 2129.91 845.513C2129.91 846.313 2130.53 846.78 2131.58 846.78C2133.23 846.78 2134.21 845.813 2134.21 844.863V843.381ZM2130.82 816.003H2132.24V824.617H2130.82V816.003ZM2130.82 812.721H2132.24V814.454H2130.82V812.721ZM2125.72 822.817V817.253H2124.25V816.003H2125.72V813.421H2127.13V816.003H2128.85V817.253H2127.13V822.651C2127.13 823.084 2127.27 823.301 2127.57 823.334C2127.85 823.351 2128.15 823.367 2128.45 823.367H2128.85V824.617H2127.68C2126.12 824.617 2125.72 824.117 2125.72 822.817ZM2119.43 823.567C2120.8 823.567 2121.61 822.784 2121.8 821.468H2123.25C2122.93 823.617 2121.6 824.817 2119.45 824.817C2116.93 824.817 2115.42 823.117 2115.42 820.418C2115.42 817.619 2116.95 815.803 2119.48 815.803C2121.56 815.803 2122.96 816.803 2123.2 818.769H2121.73C2121.5 817.653 2120.73 817.053 2119.6 817.053C2117.85 817.053 2116.92 818.286 2116.92 820.418C2116.92 822.301 2117.87 823.567 2119.43 823.567ZM2117.38 839.015C2117.45 839.015 2117.5 839.015 2117.58 839.015V840.515C2115.46 840.515 2114.46 841.615 2114.46 843.98V847.829H2113.05V839.215H2114.38V841.031H2114.41C2115.08 839.665 2116.03 839.015 2117.38 839.015ZM2112.01 823.484C2111.26 824.367 2110.25 824.817 2108.98 824.817C2107.21 824.817 2106.13 823.95 2106.13 822.401C2106.13 821.635 2106.38 821.018 2106.88 820.568C2107.36 820.102 2108.51 819.769 2110.36 819.535C2111.61 819.385 2111.95 819.085 2111.95 818.469C2111.95 817.519 2111.36 817.053 2110.03 817.053C2108.63 817.053 2107.95 817.569 2107.88 818.686H2106.46C2106.56 816.77 2107.86 815.803 2110.13 815.803C2112.56 815.803 2113.35 816.77 2113.35 818.119V823.084C2113.35 823.401 2113.5 823.567 2113.8 823.567C2113.93 823.567 2114.1 823.534 2114.23 823.484V824.584C2113.96 824.734 2113.61 824.817 2113.21 824.817C2112.45 824.817 2112.01 824.384 2112.01 823.484ZM2111.93 820.168C2111.7 820.335 2111.31 820.468 2110.93 820.518L2109.48 820.735C2108.23 820.918 2107.63 821.401 2107.63 822.301C2107.63 823.101 2108.25 823.567 2109.3 823.567C2110.95 823.567 2111.93 822.601 2111.93 821.651V820.168ZM2109.53 844.13V839.215H2110.94V847.829H2109.61V846.463H2109.58C2108.96 847.563 2107.98 848.029 2106.78 848.029C2104.76 848.029 2103.81 846.979 2103.81 844.963V839.215H2105.23V845.08C2105.23 846.08 2105.89 846.78 2106.98 846.78C2108.63 846.78 2109.53 845.697 2109.53 844.13ZM2106.2 862.228C2108.7 862.228 2110.17 864.11 2110.17 866.76C2110.17 869.392 2108.67 871.241 2106.24 871.241C2105.17 871.241 2104.06 870.808 2103.46 869.892H2103.42V874.34H2102.01V862.428H2103.42V863.594H2103.46C2103.91 862.711 2104.89 862.228 2106.2 862.228ZM2103.37 866.726C2103.37 868.709 2104.37 869.992 2106.09 869.992C2107.72 869.992 2108.67 868.759 2108.67 866.66C2108.67 864.843 2107.67 863.477 2105.99 863.477C2104.29 863.477 2103.37 864.843 2103.37 866.726ZM2096.48 865.843L2097.81 866.143C2099.48 866.51 2100.36 867.226 2100.36 868.526C2100.36 870.225 2098.95 871.241 2096.7 871.241C2094.51 871.241 2093.13 870.258 2093.05 868.326H2094.46C2094.5 869.392 2095.35 869.992 2096.78 869.992C2098.15 869.992 2098.86 869.559 2098.86 868.709C2098.86 868.326 2098.68 868.009 2098.33 867.792C2097.98 867.576 2097.26 867.359 2096.18 867.126C2093.97 866.66 2093.23 865.96 2093.23 864.677C2093.23 863.161 2094.58 862.228 2096.46 862.228C2098.78 862.228 2099.86 863.127 2099.98 864.927H2098.56V864.91C2098.48 863.994 2097.7 863.477 2096.57 863.477C2095.43 863.477 2094.73 863.877 2094.73 864.577C2094.73 865.21 2095.32 865.577 2096.48 865.843ZM2098.38 818.736C2098.38 817.786 2097.77 817.053 2096.62 817.053C2095 817.053 2094.09 818.136 2094.09 819.702V824.617H2092.67V816.003H2094V817.369H2094.04C2094.67 816.286 2095.57 815.803 2096.84 815.803C2098.92 815.803 2099.8 816.903 2099.8 818.885V824.617H2098.38V818.736ZM2087.1 824.817C2084.6 824.817 2082.92 823.067 2082.92 820.318C2082.92 817.569 2084.52 815.803 2087.1 815.803C2089.75 815.803 2091.28 817.686 2091.28 820.318C2091.28 822.984 2089.63 824.817 2087.1 824.817ZM2087.08 817.053C2085.58 817.053 2084.42 818.319 2084.42 820.318C2084.42 822.268 2085.53 823.567 2087.1 823.567C2088.65 823.567 2089.78 822.268 2089.78 820.318C2089.78 818.369 2088.65 817.053 2087.08 817.053ZM2087.73 842.098V847.829H2086.32V841.948C2086.32 840.998 2085.7 840.265 2084.55 840.265C2082.95 840.265 2082.02 841.348 2082.02 842.914V847.829H2080.6V835.933H2082.02V840.482H2082.05C2082.45 839.565 2083.55 839.015 2084.76 839.015C2086.85 839.015 2087.73 840.115 2087.73 842.098ZM2085.74 869.575C2085.3 870.525 2084.25 871.141 2083.05 871.141C2080.72 871.141 2079.21 869.375 2079.21 866.776C2079.21 864.16 2080.64 862.228 2083.17 862.228C2084.39 862.228 2085.27 862.794 2085.75 863.661H2085.77V862.428H2087.1V870.392C2087.1 873.107 2085.82 874.54 2083.12 874.54C2081.17 874.54 2079.62 873.674 2079.54 872.008H2080.96C2081.01 872.907 2082.09 873.407 2083.19 873.407C2084.85 873.407 2085.77 872.291 2085.77 870.108V869.575H2085.74ZM2083.24 863.477C2081.65 863.477 2080.71 864.727 2080.71 866.61C2080.71 868.626 2081.59 869.892 2083.14 869.892C2084.7 869.892 2085.7 868.559 2085.7 866.56C2085.7 864.744 2084.82 863.477 2083.24 863.477ZM2080.57 886.889H2078.85V892.288C2078.85 892.721 2078.99 892.937 2079.29 892.971C2079.57 892.987 2079.87 893.004 2080.17 893.004H2080.57V894.254H2079.4C2077.84 894.254 2077.44 893.754 2077.44 892.454V886.889H2075.97V885.64H2077.44V883.057H2078.85V885.64H2080.57V886.889ZM2075.58 846.03V840.465H2074.11V839.215H2075.58V836.633H2077V839.215H2078.71V840.465H2077V845.863C2077 846.296 2077.13 846.513 2077.43 846.546C2077.71 846.563 2078.01 846.58 2078.31 846.58H2078.71V847.829H2077.54C2075.98 847.829 2075.58 847.329 2075.58 846.03ZM2070.49 820.835C2070.49 822.484 2071.51 823.567 2073.17 823.567C2074.44 823.567 2075.17 822.951 2075.41 821.884H2076.81C2076.42 823.801 2075.07 824.817 2073.12 824.817C2072.22 824.817 2071.46 824.617 2070.84 824.217C2069.58 823.384 2068.99 821.751 2068.99 820.252C2068.99 818.985 2069.36 817.936 2070.12 817.086C2070.89 816.236 2071.87 815.803 2073.04 815.803C2074.27 815.803 2075.24 816.253 2075.92 817.136C2076.61 818.019 2076.94 819.169 2076.94 820.568V820.735H2070.49V820.835ZM2075.44 819.485C2075.36 818.102 2074.34 817.053 2072.94 817.053C2071.61 817.053 2070.61 818.019 2070.49 819.485H2075.44ZM2066.88 824.617L2063.93 820.118L2062.6 821.351V824.617H2061.18V812.721H2062.6V819.769L2066.53 816.003H2068.43L2065.02 819.135L2068.68 824.617H2066.88ZM2057.23 823.484C2056.48 824.367 2055.47 824.817 2054.2 824.817C2052.43 824.817 2051.35 823.95 2051.35 822.401C2051.35 821.635 2051.6 821.018 2052.1 820.568C2052.58 820.102 2053.73 819.769 2055.58 819.535C2056.83 819.385 2057.17 819.085 2057.17 818.469C2057.17 817.519 2056.58 817.053 2055.25 817.053C2053.85 817.053 2053.17 817.569 2053.1 818.686H2051.68C2051.78 816.77 2053.08 815.803 2055.35 815.803C2057.78 815.803 2058.57 816.77 2058.57 818.119V823.084C2058.57 823.401 2058.71 823.567 2059.01 823.567C2059.15 823.567 2059.31 823.534 2059.45 823.484V824.584C2059.18 824.734 2058.83 824.817 2058.43 824.817C2057.66 824.817 2057.23 824.384 2057.23 823.484ZM2057.15 820.168C2056.92 820.335 2056.53 820.468 2056.15 820.518L2054.7 820.735C2053.45 820.918 2052.85 821.401 2052.85 822.301C2052.85 823.101 2053.47 823.567 2054.52 823.567C2056.17 823.567 2057.15 822.601 2057.15 821.651V820.168ZM2051.47 837.866C2051.47 836.6 2052.27 835.8 2053.84 835.8C2054.05 835.8 2054.57 835.866 2054.77 835.933V837.166C2054.55 837.083 2054.19 837.049 2053.97 837.049C2053.19 837.049 2052.89 837.399 2052.89 837.982V839.215H2054.55V840.465H2052.89V847.829H2051.47V840.465H2050.02V839.215H2051.47V837.866ZM2046.8 869.242V863.677H2045.33V862.428H2046.8V859.845H2048.21V862.428H2049.93V863.677H2048.21V869.075C2048.21 869.509 2048.34 869.725 2048.64 869.759C2048.93 869.775 2049.23 869.792 2049.53 869.792H2049.93V871.041H2048.76C2047.2 871.041 2046.8 870.542 2046.8 869.242ZM2046.8 822.817V817.253H2045.33V816.003H2046.8V813.421H2048.21V816.003H2049.93V817.253H2048.21V822.651C2048.21 823.084 2048.34 823.301 2048.64 823.334C2048.93 823.351 2049.23 823.367 2049.53 823.367H2049.93V824.617H2048.76C2047.2 824.617 2046.8 824.117 2046.8 822.817ZM2042.04 843.98V847.829H2040.62V839.215H2041.96V841.031H2041.99C2042.66 839.665 2043.61 839.015 2044.96 839.015C2045.02 839.015 2045.07 839.015 2045.16 839.015V840.515C2043.04 840.515 2042.04 841.615 2042.04 843.98ZM2043.71 864.544V869.509C2043.71 869.825 2043.86 869.992 2044.16 869.992C2044.29 869.992 2044.46 869.958 2044.59 869.908V871.008C2044.33 871.158 2043.97 871.241 2043.58 871.241C2042.81 871.241 2042.38 870.808 2042.38 869.908C2041.63 870.792 2040.61 871.241 2039.34 871.241C2037.58 871.241 2036.5 870.375 2036.5 868.825C2036.5 868.059 2036.75 867.443 2037.24 866.993C2037.73 866.526 2038.88 866.193 2040.73 865.96C2041.98 865.81 2042.31 865.51 2042.31 864.893C2042.31 863.944 2041.73 863.477 2040.39 863.477C2038.99 863.477 2038.31 863.994 2038.24 865.11H2036.83C2036.93 863.194 2038.23 862.228 2040.49 862.228C2042.93 862.228 2043.71 863.194 2043.71 864.544ZM2042.29 866.593C2042.06 866.76 2041.68 866.893 2041.29 866.943L2039.84 867.159C2038.59 867.343 2037.99 867.826 2037.99 868.726C2037.99 869.525 2038.61 869.992 2039.66 869.992C2041.31 869.992 2042.29 869.025 2042.29 868.076V866.593ZM2037.97 812.721H2039.39V824.617H2037.97V812.721ZM2038.14 846.296C2038.14 846.613 2038.29 846.78 2038.59 846.78C2038.72 846.78 2038.89 846.746 2039.02 846.696V847.796C2038.75 847.946 2038.4 848.029 2038 848.029C2037.24 848.029 2036.81 847.596 2036.81 846.696C2036.06 847.579 2035.04 848.029 2033.77 848.029C2032.01 848.029 2030.92 847.163 2030.92 845.613C2030.92 844.847 2031.17 844.23 2031.67 843.781C2032.16 843.314 2033.31 842.981 2035.16 842.748C2036.4 842.598 2036.74 842.298 2036.74 841.681C2036.74 840.732 2036.15 840.265 2034.82 840.265C2033.42 840.265 2032.74 840.781 2032.67 841.898H2031.26C2031.36 839.982 2032.66 839.015 2034.92 839.015C2037.35 839.015 2038.14 839.982 2038.14 841.331V846.296ZM2036.72 843.381C2036.49 843.547 2036.11 843.681 2035.72 843.731L2034.27 843.947C2033.02 844.13 2032.42 844.614 2032.42 845.513C2032.42 846.313 2033.04 846.78 2034.09 846.78C2035.74 846.78 2036.72 845.813 2036.72 844.863V843.381ZM2034.02 823.484C2033.27 824.367 2032.25 824.817 2030.99 824.817C2029.22 824.817 2028.14 823.95 2028.14 822.401C2028.14 821.635 2028.39 821.018 2028.89 820.568C2029.37 820.102 2030.52 819.769 2032.37 819.535C2033.62 819.385 2033.95 819.085 2033.95 818.469C2033.95 817.519 2033.37 817.053 2032.04 817.053C2030.64 817.053 2029.95 817.569 2029.89 818.686H2028.47C2028.57 816.77 2029.87 815.803 2032.14 815.803C2034.57 815.803 2035.35 816.77 2035.35 818.119V823.084C2035.35 823.401 2035.5 823.567 2035.8 823.567C2035.94 823.567 2036.1 823.534 2036.24 823.484V824.584C2035.97 824.734 2035.62 824.817 2035.22 824.817C2034.45 824.817 2034.02 824.384 2034.02 823.484ZM2033.94 820.168C2033.7 820.335 2033.32 820.468 2032.94 820.518L2031.49 820.735C2030.24 820.918 2029.64 821.401 2029.64 822.301C2029.64 823.101 2030.25 823.567 2031.3 823.567C2032.95 823.567 2033.94 822.601 2033.94 821.651V820.168ZM2029.59 843.781V843.947H2023.14V844.047C2023.14 845.697 2024.15 846.78 2025.82 846.78C2027.09 846.78 2027.82 846.163 2028.05 845.097H2029.45C2029.07 847.013 2027.72 848.029 2025.77 848.029C2024.87 848.029 2024.1 847.829 2023.49 847.429C2022.22 846.596 2021.64 844.963 2021.64 843.464C2021.64 842.198 2022.01 841.148 2022.77 840.298C2023.54 839.449 2024.52 839.015 2025.69 839.015C2026.92 839.015 2027.89 839.465 2028.57 840.348C2029.25 841.231 2029.59 842.381 2029.59 843.781ZM2025.59 840.265C2024.25 840.265 2023.26 841.231 2023.14 842.698H2028.09C2028 841.315 2026.99 840.265 2025.59 840.265ZM2022.87 823.567C2024.24 823.567 2025.05 822.784 2025.24 821.468H2026.68C2026.37 823.617 2025.04 824.817 2022.89 824.817C2020.37 824.817 2018.85 823.117 2018.85 820.418C2018.85 817.619 2020.39 815.803 2022.92 815.803C2025 815.803 2026.4 816.803 2026.63 818.769H2025.17C2024.93 817.653 2024.17 817.053 2023.04 817.053C2021.29 817.053 2020.35 818.286 2020.35 820.418C2020.35 822.301 2021.3 823.567 2022.87 823.567ZM2015.69 816.003H2017.1V824.617H2015.69V816.003ZM2015.69 812.721H2017.1V814.454H2015.69V812.721ZM2016.99 846.263L2018.92 839.215H2020.39L2017.65 847.813L2017.64 847.829H2016.14L2014.37 840.981H2014.35L2012.62 847.829H2011.09L2008.32 839.215H2009.89L2011.84 846.263H2011.87L2013.6 839.215H2015.15L2016.97 846.263H2016.99ZM2012.04 818.736C2012.04 817.786 2011.42 817.053 2010.27 817.053C2008.65 817.053 2007.74 818.136 2007.74 819.702V824.617H2006.32V816.003H2007.65V817.369H2007.69C2008.32 816.286 2009.22 815.803 2010.49 815.803C2012.57 815.803 2013.45 816.903 2013.45 818.885V824.617H2012.04V818.736ZM2009.1 863.561C2010.68 864.444 2011.02 865.593 2011.02 866.993V867.159H2004.57V867.259C2004.57 868.909 2005.58 869.992 2007.25 869.992C2008.52 869.992 2009.25 869.375 2009.48 868.309H2010.88C2010.5 870.225 2009.15 871.241 2007.2 871.241C2006.3 871.241 2005.53 871.041 2004.92 870.642C2003.65 869.808 2003.07 868.176 2003.07 866.676C2003.07 865.41 2003.44 864.36 2004.2 863.511C2004.97 862.661 2005.95 862.228 2007.12 862.228C2008.35 862.228 2009.32 862.678 2009.1 863.561ZM2004.57 865.91H2009.52C2009.43 864.527 2008.42 863.477 2007.02 863.477C2005.69 863.477 2004.69 864.444 2004.57 865.91ZM2002.75 818.736C2002.75 817.786 2002.13 817.053 2000.99 817.053C1999.39 817.053 1998.45 818.136 1998.45 819.702V824.617H1997.04V812.721H1998.45V817.269H1998.49C1998.89 816.353 1999.99 815.803 2001.2 815.803C2003.28 815.803 2004.17 816.903 2004.17 818.885V824.617H2002.75V818.736ZM1999.32 846.263L2001.74 839.215H2003.24L1999.57 848.746C1998.82 850.745 1998.26 851.278 1996.99 851.278C1996.64 851.278 1996.32 851.245 1996.01 851.128V849.828C1996.27 849.912 1996.56 850.028 1996.84 850.028C1997.42 850.028 1997.82 849.745 1998.04 849.162L1998.59 847.779L1995.17 839.215H1996.77L1999.29 846.263H1999.32ZM1991.3 823.567C1992.67 823.567 1993.48 822.784 1993.67 821.468H1995.12C1994.8 823.617 1993.47 824.817 1991.32 824.817C1988.8 824.817 1987.28 823.117 1987.28 820.418C1987.28 817.619 1988.82 815.803 1991.35 815.803C1993.43 815.803 1994.83 816.803 1995.06 818.769H1993.6C1993.37 817.653 1992.6 817.053 1991.47 817.053C1989.72 817.053 1988.78 818.286 1988.78 820.418C1988.78 822.301 1989.73 823.567 1991.3 823.567ZM1990.26 840.265C1988.86 840.265 1988.17 840.781 1988.11 841.898H1986.69C1986.79 839.982 1988.09 839.015 1990.35 839.015C1992.79 839.015 1993.57 839.982 1993.57 841.331V846.296C1993.57 846.613 1993.72 846.78 1994.02 846.78C1994.15 846.78 1994.32 846.746 1994.45 846.696V847.796C1994.19 847.946 1993.84 848.029 1993.44 848.029C1992.67 848.029 1992.24 847.596 1992.24 846.696C1991.49 847.579 1990.47 848.029 1989.21 848.029C1987.44 848.029 1986.36 847.163 1986.36 845.613C1986.36 844.847 1986.61 844.23 1987.11 843.781C1987.59 843.314 1988.74 842.981 1990.59 842.748C1991.84 842.598 1992.17 842.298 1992.17 841.681C1992.17 840.732 1991.59 840.265 1990.26 840.265ZM1992.15 843.381C1991.92 843.547 1991.54 843.681 1991.15 843.731L1989.71 843.947C1988.46 844.13 1987.86 844.614 1987.86 845.513C1987.86 846.313 1988.47 846.78 1989.52 846.78C1991.17 846.78 1992.15 845.813 1992.15 844.863V843.381ZM1979.5 820.835C1979.5 822.484 1980.52 823.567 1982.18 823.567C1983.45 823.567 1984.18 822.951 1984.41 821.884H1985.81C1985.43 823.801 1984.08 824.817 1982.13 824.817C1981.23 824.817 1980.47 824.617 1979.85 824.217C1978.58 823.384 1977.1 821.751 1977.1 820.252C1977.1 818.985 1978.37 817.936 1979.13 817.086C1979.9 816.236 1980.88 815.803 1982.05 815.803C1983.28 815.803 1984.25 816.253 1984.93 817.136C1985.61 818.019 1985.95 819.169 1985.95 820.568V820.735H1979.5V820.835ZM1984.45 819.485C1984.36 818.102 1983.35 817.053 1981.95 817.053C1980.62 817.053 1979.62 818.019 1979.5 819.485H1984.45ZM1982.86 840.365H1982.89V835.933H1984.31V847.829H1982.89V846.663H1982.86C1982.41 847.546 1981.39 848.029 1980.11 848.029C1977.69 848.029 1976.14 846.18 1976.14 843.497C1976.14 840.865 1977.59 839.015 1980.06 839.015C1981.17 839.015 1982.32 839.499 1982.86 840.365ZM1977.64 843.597C1977.64 845.413 1978.64 846.78 1980.31 846.78C1982.01 846.78 1982.94 845.43 1982.94 843.531C1982.94 841.581 1981.96 840.265 1980.21 840.265C1978.58 840.265 1977.64 841.548 1977.64 843.597ZM1973.44 822.817V817.253H1971.98V816.003H1973.44V813.421H1974.86V816.003H1976.58V817.253H1974.86V822.651C1974.86 823.084 1975 823.301 1975.29 823.334C1975.58 823.351 1975.88 823.367 1976.18 823.367H1976.58V824.617H1975.41C1973.84 824.617 1973.44 824.117 1973.44 822.817ZM1970.48 866.393L1973.81 871.041H1971.99L1969.59 867.476L1967.2 871.041H1965.48L1968.71 866.51L1965.71 862.428H1967.53L1969.58 865.427H1969.59L1971.74 862.428H1973.44L1970.48 866.393ZM1966.4 848.029C1963.9 848.029 1962.22 846.28 1962.22 843.531C1962.22 840.781 1963.81 839.015 1966.4 839.015C1969.05 839.015 1970.58 840.898 1970.58 843.531C1970.58 846.196 1968.93 848.029 1966.4 848.029ZM1966.38 840.265C1964.88 840.265 1963.72 841.531 1963.72 843.531C1963.72 845.48 1964.83 846.78 1966.4 846.78C1967.95 846.78 1969.08 845.48 1969.08 843.531C1969.08 841.581 1967.95 840.265 1966.38 840.265ZM1963.93 821.035H1958.89L1957.56 824.617H1955.93L1960.58 812.721H1962.33L1966.97 824.617H1965.23L1963.93 821.035ZM1961.44 814.154H1961.41L1959.39 819.702H1963.43L1961.44 814.154ZM1957.66 836.633H1959.08V839.215H1960.79V840.465H1959.08V845.863C1959.08 846.296 1959.21 846.513 1959.51 846.546C1959.79 846.563 1960.09 846.58 1960.39 846.58H1960.79V847.829H1959.63C1958.06 847.829 1957.66 847.329 1957.66 846.03V840.465H1956.19V839.215H1957.66V836.633ZM1957.69 907.503C1957.69 906.236 1958.49 905.437 1960.06 905.437C1960.28 905.437 1960.79 905.503 1960.99 905.57V906.803C1960.78 906.72 1960.41 906.686 1960.19 906.686C1959.41 906.686 1959.11 907.036 1959.11 907.619V908.852H1960.78V910.102H1959.11V917.466H1957.69V910.102H1956.24V908.852H1957.69V907.503ZM1960.88 935.597C1962.13 935.447 1962.46 935.147 1962.46 934.53C1962.46 933.581 1961.88 933.114 1960.54 933.114C1959.14 933.114 1958.46 933.631 1958.39 934.747H1956.98C1957.08 932.831 1958.38 931.864 1960.64 931.864C1963.08 931.864 1963.86 932.831 1963.86 934.18V939.145C1963.86 939.462 1964.01 939.629 1964.31 939.629C1964.44 939.629 1964.61 939.595 1964.74 939.545V940.645C1964.47 940.795 1964.13 940.878 1963.73 940.878C1962.96 940.878 1962.53 940.445 1962.53 939.545C1961.78 940.428 1960.76 940.878 1959.49 940.878C1957.73 940.878 1956.64 940.012 1956.64 938.462C1956.64 937.696 1956.89 937.079 1957.39 936.63C1957.88 936.163 1959.03 935.83 1960.88 935.597ZM1959.81 939.629C1961.46 939.629 1962.44 938.662 1962.44 937.713V936.23C1962.21 936.396 1961.83 936.53 1961.44 936.58L1959.99 936.796C1958.74 936.979 1958.14 937.463 1958.14 938.362C1958.14 939.162 1958.76 939.629 1959.81 939.629ZM1960.56 978.289C1961.68 978.289 1962.83 978.772 1963.36 979.639H1963.39V975.207H1964.81V987.103H1963.39V985.936H1963.36C1962.91 986.819 1961.89 987.303 1960.61 987.303C1958.19 987.303 1956.64 985.453 1956.64 982.771C1956.64 980.138 1958.09 978.289 1960.56 978.289ZM1960.81 986.053C1962.51 986.053 1963.44 984.704 1963.44 982.804C1963.44 980.855 1962.46 979.539 1960.71 979.539C1959.08 979.539 1958.14 980.821 1958.14 982.871C1958.14 984.687 1959.14 986.053 1960.81 986.053ZM1963.86 958.476V963.89H1962.44V958.176C1962.44 956.943 1961.94 956.326 1960.83 956.326C1960.38 956.326 1959.98 956.443 1959.63 956.66C1958.94 957.093 1958.53 957.992 1958.53 958.492V963.89H1957.11V955.277H1958.44V956.543H1958.48C1959.13 955.56 1960.04 955.077 1961.26 955.077C1962.53 955.077 1963.33 955.61 1963.62 956.543C1964.21 955.627 1965.19 955.077 1966.34 955.077C1968.27 955.077 1969.19 956.026 1969.19 957.526V963.89H1967.77V958.176C1967.77 956.943 1967.27 956.326 1966.11 956.326C1964.69 956.326 1963.86 957.276 1963.86 958.476ZM1968.82 976.939H1967.41V975.207H1968.82V976.939ZM1968.82 987.103H1967.41V978.489H1968.82V987.103ZM1974.22 986.053C1975.59 986.053 1976.3 985.62 1976.3 984.77C1976.3 984.387 1976.12 984.07 1975.77 983.854C1975.42 983.637 1974.7 983.421 1973.62 983.187C1971.41 982.721 1970.67 982.021 1970.67 980.738C1970.67 979.222 1972.02 978.289 1973.9 978.289C1976.22 978.289 1977.3 979.189 1977.42 980.988H1976V980.971C1975.92 980.055 1975.14 979.539 1974 979.539C1972.87 979.539 1972.17 979.938 1972.17 980.638C1972.17 981.271 1972.75 981.638 1973.92 981.904L1975.25 982.204C1976.92 982.571 1977.8 983.287 1977.8 984.587C1977.8 986.286 1976.39 987.303 1974.14 987.303C1971.95 987.303 1970.57 986.32 1970.49 984.387H1971.91C1971.94 985.453 1972.79 986.053 1974.22 986.053ZM1979.94 975.906H1981.36V978.489H1983.08V979.738H1981.36V985.137C1981.36 985.57 1981.49 985.786 1981.79 985.82C1982.08 985.836 1982.38 985.853 1982.68 985.853H1983.08V987.103H1981.91C1980.34 987.103 1979.94 986.603 1979.94 985.303V979.738H1978.48V978.489H1979.94V975.906ZM1979.49 955.277H1981.07L1983.49 962.458H1983.52L1985.87 955.277H1987.35L1984.2 963.89H1982.69L1979.49 955.277ZM1986.47 976.939H1985.05V975.207H1986.47V976.939ZM1986.47 987.103H1985.05V978.489H1986.47V987.103ZM1992.26 955.077C1993.5 955.077 1994.46 955.527 1995.14 956.41C1995.83 957.293 1996.16 958.442 1996.16 959.842V960.008H1989.71V960.108C1989.71 961.758 1990.73 962.841 1992.4 962.841C1993.66 962.841 1994.39 962.224 1994.63 961.158H1996.03C1995.64 963.074 1994.29 964.09 1992.35 964.09C1991.45 964.09 1990.68 963.89 1990.06 963.491C1988.8 962.658 1988.21 961.025 1988.21 959.525C1988.21 958.259 1988.58 957.209 1989.35 956.36C1990.11 955.51 1991.1 955.077 1992.26 955.077ZM1994.66 958.759C1994.58 957.376 1993.56 956.326 1992.16 956.326C1990.83 956.326 1989.83 957.293 1989.71 958.759H1994.66ZM1990.01 979.855H1990.05C1990.68 978.772 1991.58 978.289 1992.85 978.289C1994.93 978.289 1995.81 979.389 1995.81 981.371V987.103H1994.39V981.221C1994.39 980.272 1993.78 979.539 1992.63 979.539C1991.01 979.539 1990.1 980.622 1990.1 982.188V987.103H1988.68V978.489H1990.01V979.855ZM2001.56 978.289C2003.65 978.289 2005.05 979.289 2005.28 981.255H2003.81C2003.58 980.138 2002.81 979.539 2001.68 979.539C1999.93 979.539 1999 980.771 1999 982.904C1999 984.787 1999.95 986.053 2001.51 986.053C2002.88 986.053 2003.7 985.27 2003.88 983.954H2005.33C2005.01 986.103 2003.68 987.303 2001.53 987.303C1999.01 987.303 1997.5 985.603 1997.5 982.904C1997.5 980.105 1999.03 978.289 2001.56 978.289ZM2004.71 963.89H2003.3V958.176C2003.3 956.943 2002.8 956.326 2001.68 956.326C2001.23 956.326 2000.83 956.443 2000.48 956.66C1999.8 957.093 1999.38 957.992 1999.38 958.492V963.89H1997.97V955.277H1999.3V956.543H1999.33C1999.98 955.56 2000.9 955.077 2002.11 955.077C2003.38 955.077 2004.18 955.61 2004.48 956.543C2005.06 955.627 2006.04 955.077 2007.19 955.077C2009.13 955.077 2010.04 956.026 2010.04 957.526V963.89H2008.63V958.176C2008.63 956.943 2008.13 956.326 2006.96 956.326C2005.55 956.326 2004.71 957.276 2004.71 958.476V963.89ZM2007.8 975.906H2009.22V978.489H2010.93V979.738H2009.22V985.137C2009.22 985.57 2009.35 985.786 2009.65 985.82C2009.93 985.836 2010.23 985.853 2010.53 985.853H2010.93V987.103H2009.76C2008.2 987.103 2007.8 986.603 2007.8 985.303V979.738H2006.33V978.489H2007.8V975.906ZM2012.38 937.929C2012.38 938.929 2013.05 939.629 2014.13 939.629C2015.78 939.629 2016.68 938.546 2016.68 936.979V932.064H2018.09V940.678H2016.76V939.312H2016.73C2016.11 940.412 2015.13 940.878 2013.93 940.878C2011.91 940.878 2010.96 939.828 2010.96 937.812V932.064H2012.38V937.929ZM2015.47 955.077C2016.71 955.077 2017.67 955.527 2018.36 956.41C2019.04 957.293 2019.37 958.442 2019.37 959.842V960.008H2012.92V960.108C2012.92 961.758 2013.94 962.841 2015.61 962.841C2016.87 962.841 2017.61 962.224 2017.84 961.158H2019.24C2018.86 963.074 2017.51 964.09 2015.56 964.09C2014.66 964.09 2013.89 963.89 2013.28 963.491C2012.01 962.658 2011.42 961.025 2011.42 959.525C2011.42 958.259 2011.79 957.209 2012.56 956.36C2013.32 955.51 2014.31 955.077 2015.47 955.077ZM2017.87 958.759C2017.79 957.376 2016.77 956.326 2015.37 956.326C2014.04 956.326 2013.04 957.293 2012.92 958.759H2017.87ZM2018.88 984.354C2018.88 985.353 2019.54 986.053 2020.63 986.053C2022.28 986.053 2023.18 984.97 2023.18 983.404V978.489H2024.59V987.103H2023.26V985.737H2023.23C2022.61 986.836 2021.63 987.303 2020.43 987.303C2018.41 987.303 2017.46 986.253 2017.46 984.237V978.489H2018.88V984.354ZM2022.59 958.975V963.89H2021.18V955.277H2022.51V956.643H2022.54C2023.18 955.56 2024.08 955.077 2025.34 955.077C2027.43 955.077 2028.31 956.176 2028.31 958.159V963.89H2026.89V958.009C2026.89 957.059 2026.27 956.326 2025.12 956.326C2023.51 956.326 2022.59 957.409 2022.59 958.975ZM2027.3 975.906H2028.71V978.489H2030.43V979.738H2028.71V985.137C2028.71 985.57 2028.85 985.786 2029.15 985.82C2029.43 985.836 2029.73 985.853 2030.03 985.853H2030.43V987.103H2029.26C2027.7 987.103 2027.3 986.603 2027.3 985.303V979.738H2025.83V978.489H2027.3V975.906ZM2029.54 955.277H2031.01V952.694H2032.43V955.277H2034.14V956.526H2032.43V961.924C2032.43 962.358 2032.56 962.574 2032.86 962.608C2033.14 962.624 2033.44 962.641 2033.74 962.641H2034.14V963.89H2032.98C2031.41 963.89 2031.01 963.391 2031.01 962.091V956.526H2029.54V955.277ZM2033.82 976.939H2032.4V975.207H2033.82V976.939ZM2033.82 987.103H2032.4V978.489H2033.82V987.103ZM2030 915.25C2030 914.484 2030.25 913.867 2030.75 913.417C2031.23 912.951 2032.38 912.618 2034.23 912.384C2035.48 912.234 2035.81 911.934 2035.81 911.318C2035.81 910.368 2035.23 909.902 2033.89 909.902C2032.49 909.902 2031.81 910.418 2031.75 911.535H2030.33C2030.43 909.619 2031.73 908.652 2033.99 908.652C2036.43 908.652 2037.21 909.619 2037.21 910.968V915.933C2037.21 916.25 2037.36 916.416 2037.66 916.416C2037.79 916.416 2037.96 916.383 2038.09 916.333V917.433C2037.83 917.583 2037.48 917.666 2037.08 917.666C2036.31 917.666 2035.88 917.233 2035.88 916.333C2035.13 917.216 2034.11 917.666 2032.84 917.666C2031.08 917.666 2030 916.799 2030 915.25ZM2035.79 914.5V913.017C2035.56 913.184 2035.18 913.317 2034.79 913.367L2033.34 913.584C2032.09 913.767 2031.5 914.25 2031.5 915.15C2031.5 915.95 2032.11 916.416 2033.16 916.416C2034.81 916.416 2035.79 915.45 2035.79 914.5ZM2038.69 885.44C2039.92 885.44 2040.89 885.89 2041.57 886.773C2042.25 887.656 2042.58 888.805 2042.58 890.205V890.372H2036.14V890.472C2036.14 892.121 2037.15 893.204 2038.82 893.204C2040.09 893.204 2040.82 892.588 2041.05 891.521H2042.45C2042.07 893.437 2040.72 894.454 2038.77 894.454C2037.87 894.454 2037.1 894.254 2036.49 893.854C2035.22 893.021 2034.64 891.388 2034.64 889.888C2034.64 888.622 2035 887.573 2035.77 886.723C2036.54 885.873 2037.52 885.44 2038.69 885.44ZM2041.08 889.122C2041 887.739 2039.99 886.69 2038.59 886.69C2037.25 886.69 2036.25 887.656 2036.14 889.122H2041.08ZM2031.47 894.254V882.358H2032.89V894.254H2031.47ZM2031.26 862.228C2032.49 862.228 2033.46 862.678 2034.14 863.561C2034.82 864.444 2035.16 865.593 2035.16 866.993V867.159H2028.71V867.259C2028.71 868.909 2029.73 869.992 2031.39 869.992C2032.66 869.992 2033.39 869.375 2033.62 868.309H2035.02C2034.64 870.225 2033.29 871.241 2031.34 871.241C2030.44 871.241 2029.68 871.041 2029.06 870.642C2027.79 869.808 2027.21 868.176 2027.21 866.676C2027.21 865.41 2027.58 864.36 2028.34 863.511C2029.11 862.661 2030.09 862.228 2031.26 862.228ZM2033.66 865.91C2033.57 864.527 2032.56 863.477 2031.16 863.477C2029.83 863.477 2028.83 864.444 2028.71 865.91H2033.66ZM2025.87 943.977V932.064H2027.29V933.231H2027.32C2027.77 932.348 2028.75 931.864 2030.07 931.864C2032.57 931.864 2034.03 933.747 2034.03 936.396C2034.03 939.029 2032.53 940.878 2030.1 940.878C2029.03 940.878 2027.92 940.445 2027.32 939.529H2027.29V943.977H2025.87ZM2029.95 939.629C2031.58 939.629 2032.53 938.396 2032.53 936.296C2032.53 934.48 2031.53 933.114 2029.85 933.114C2028.15 933.114 2027.24 934.48 2027.24 936.363C2027.24 938.346 2028.23 939.629 2029.95 939.629ZM2020.2 940.678V932.064H2021.53V933.88H2021.57C2022.23 932.514 2023.18 931.864 2024.53 931.864C2024.6 931.864 2024.65 931.864 2024.73 931.864V933.364C2022.61 933.364 2021.61 934.464 2021.61 936.829V940.678H2020.2ZM2017.87 910.218H2017.9C2018.53 909.135 2019.43 908.652 2020.7 908.652C2022.78 908.652 2023.67 909.752 2023.67 911.735V917.466H2022.25V911.585C2022.25 910.635 2021.63 909.902 2020.48 909.902C2018.87 909.902 2017.95 910.985 2017.95 912.551V917.466H2016.53V908.852H2017.87V910.218ZM2014.1 864.244H2014.14C2014.8 862.877 2015.75 862.228 2017.1 862.228C2017.17 862.228 2017.22 862.228 2017.3 862.228V863.727C2015.19 863.727 2014.19 864.827 2014.19 867.193V871.041H2012.77V862.428H2014.1V864.244ZM2014.32 917.466H2012.9V908.852H2014.32V917.466ZM2012.9 905.57H2014.32V907.303H2012.9V905.57ZM2010.7 885.44C2011.82 885.44 2012.96 885.923 2013.5 886.789H2013.53V882.358H2014.95V894.254H2013.53V893.087H2013.5C2013.05 893.97 2012.03 894.454 2010.75 894.454C2008.33 894.454 2006.78 892.604 2006.78 889.922C2006.78 887.289 2008.23 885.44 2010.7 885.44ZM2010.95 893.204C2012.65 893.204 2013.58 891.854 2013.58 889.955C2013.58 888.006 2012.6 886.69 2010.85 886.69C2009.21 886.69 2008.28 887.972 2008.28 890.022C2008.28 891.838 2009.28 893.204 2010.95 893.204ZM2008.96 936.396C2008.96 939.029 2007.46 940.878 2005.03 940.878C2003.97 940.878 2002.85 940.445 2002.25 939.529H2002.22V943.977H2000.8V932.064H2002.22V933.231H2002.25C2002.7 932.348 2003.68 931.864 2005 931.864C2007.5 931.864 2008.96 933.747 2008.96 936.396ZM2004.78 933.114C2003.08 933.114 2002.17 934.48 2002.17 936.363C2002.17 938.346 2003.17 939.629 2004.88 939.629C2006.51 939.629 2007.46 938.396 2007.46 936.296C2007.46 934.48 2006.47 933.114 2004.78 933.114ZM1995.18 939.629C1996.45 939.629 1997.18 939.012 1997.41 937.946H1998.81C1998.43 939.862 1997.08 940.878 1995.13 940.878C1994.23 940.878 1993.46 940.678 1992.85 940.278C1991.58 939.445 1991 937.812 1991 936.313C1991 935.047 1991.36 933.997 1992.13 933.147C1992.9 932.298 1993.88 931.864 1995.05 931.864C1996.28 931.864 1997.25 932.314 1997.93 933.197C1998.61 934.08 1998.95 935.23 1998.95 936.63V936.796H1992.5V936.896C1992.5 938.546 1993.51 939.629 1995.18 939.629ZM1997.45 935.547C1997.36 934.164 1996.35 933.114 1994.95 933.114C1993.61 933.114 1992.62 934.08 1992.5 935.547H1997.45ZM1996.38 911.618C1996.15 910.502 1995.38 909.902 1994.25 909.902C1992.5 909.902 1991.57 911.135 1991.57 913.267C1991.57 915.15 1992.52 916.416 1994.08 916.416C1995.45 916.416 1996.27 915.633 1996.45 914.317H1997.9C1997.58 916.466 1996.25 917.666 1994.1 917.666C1991.59 917.666 1990.07 915.966 1990.07 913.267C1990.07 910.468 1991.6 908.652 1994.13 908.652C1996.22 908.652 1997.62 909.652 1997.85 911.618H1996.38ZM1996.88 885.44V886.939C1994.76 886.939 1993.76 888.039 1993.76 890.405V894.254H1992.34V885.64H1993.68V887.456H1993.71C1994.38 886.09 1995.33 885.44 1996.67 885.44C1996.74 885.44 1996.79 885.44 1996.88 885.44ZM1992.4 862.228C1995.04 862.228 1996.58 864.11 1996.58 866.743C1996.58 869.409 1994.93 871.241 1992.4 871.241C1989.9 871.241 1988.21 869.492 1988.21 866.743C1988.21 863.994 1989.81 862.228 1992.4 862.228ZM1992.4 869.992C1993.95 869.992 1995.08 868.692 1995.08 866.743C1995.08 864.793 1993.94 863.477 1992.38 863.477C1990.88 863.477 1989.71 864.744 1989.71 866.743C1989.71 868.692 1990.83 869.992 1992.4 869.992ZM1988.32 907.303H1986.91V905.57H1988.32V907.303ZM1986.91 908.852H1988.32V917.466H1986.91V908.852ZM1988.76 882.358H1990.18V884.09H1988.76V882.358ZM1990.18 894.254H1988.76V885.64H1990.18V894.254ZM1987.18 933.88H1987.21C1987.88 932.514 1988.83 931.864 1990.18 931.864C1990.24 931.864 1990.29 931.864 1990.38 931.864V933.364C1988.26 933.364 1987.26 934.464 1987.26 936.829V940.678H1985.84V932.064H1987.18V933.88ZM1981.2 917.466V908.852H1982.53V910.668H1982.57C1983.23 909.302 1984.18 908.652 1985.53 908.652C1985.6 908.652 1985.65 908.652 1985.73 908.652V910.152C1983.62 910.152 1982.62 911.251 1982.62 913.617V917.466H1981.2ZM1976.22 863.594H1976.25C1976.7 862.711 1977.68 862.228 1979 862.228C1981.5 862.228 1982.97 864.11 1982.97 866.76C1982.97 869.392 1981.47 871.241 1979.03 871.241C1977.97 871.241 1976.85 870.808 1976.25 869.892H1976.22V874.34H1974.8V862.428H1976.22V863.594ZM1978.88 869.992C1980.52 869.992 1981.47 868.759 1981.47 866.66C1981.47 864.843 1980.47 863.477 1978.78 863.477C1977.09 863.477 1976.17 864.843 1976.17 866.726C1976.17 868.709 1977.17 869.992 1978.88 869.992ZM1974.75 964.09C1972.25 964.09 1970.57 962.341 1970.57 959.592C1970.57 956.843 1972.17 955.077 1974.75 955.077C1977.4 955.077 1978.94 956.959 1978.94 959.592C1978.94 962.258 1977.29 964.09 1974.75 964.09ZM1974.74 956.326C1973.24 956.326 1972.07 957.593 1972.07 959.592C1972.07 961.541 1973.19 962.841 1974.75 962.841C1976.3 962.841 1977.44 961.541 1977.44 959.592C1977.44 957.643 1976.3 956.326 1974.74 956.326ZM1971.09 917.466V905.57H1972.5V910.018H1972.54C1972.99 909.135 1973.95 908.652 1975.29 908.652C1977.75 908.652 1979.25 910.568 1979.25 913.184C1979.25 915.816 1977.75 917.666 1975.32 917.666C1974.25 917.666 1973.14 917.233 1972.54 916.316H1972.5V917.466H1971.09ZM1975.17 916.416C1976.8 916.416 1977.75 915.183 1977.75 913.084C1977.75 911.268 1976.75 909.902 1975.07 909.902C1973.4 909.902 1972.45 911.268 1972.45 913.151C1972.45 915.133 1973.45 916.416 1975.17 916.416ZM1975.68 939.629C1976.95 939.629 1977.68 939.012 1977.92 937.946H1979.31C1978.93 939.862 1977.58 940.878 1975.63 940.878C1974.73 940.878 1973.97 940.678 1973.35 940.278C1972.08 939.445 1971.5 937.812 1971.5 936.313C1971.5 935.047 1971.87 933.997 1972.63 933.147C1973.4 932.298 1974.38 931.864 1975.55 931.864C1976.78 931.864 1977.75 932.314 1978.43 933.197C1979.11 934.08 1979.45 935.23 1979.45 936.63V936.796H1972.1V936.896C1972.1 938.546 1974.02 939.629 1975.68 939.629ZM1977.95 935.547C1977.86 934.164 1976.85 933.114 1975.45 933.114C1974.12 933.114 1973.12 934.08 1972.1 935.547H1977.95ZM1970.88 931.864V933.364C1968.76 933.364 1967.76 934.464 1967.76 936.829V940.678H1966.35V932.064H1967.68V933.88H1967.71C1968.38 932.514 1969.33 931.864 1970.68 931.864C1970.74 931.864 1970.79 931.864 1970.88 931.864ZM1968.5 915.933C1968.5 916.25 1968.65 916.416 1968.95 916.416C1969.08 916.416 1969.25 916.383 1969.38 916.333V917.433C1969.12 917.583 1968.77 917.666 1968.37 917.666C1967.6 917.666 1967.17 917.233 1967.17 916.333C1966.42 917.216 1965.4 917.666 1964.14 917.666C1962.37 917.666 1961.29 916.799 1961.29 915.25C1961.29 914.484 1961.54 913.867 1962.04 913.417C1962.52 912.951 1963.67 912.618 1965.52 912.384C1966.77 912.234 1967.1 911.934 1967.1 911.318C1967.1 910.368 1966.52 909.902 1965.19 909.902C1963.79 909.902 1963.1 910.418 1963.04 911.535H1961.62C1961.72 909.619 1963.02 908.652 1965.29 908.652C1967.72 908.652 1968.5 909.619 1968.5 910.968V915.933ZM1967.08 913.017C1966.85 913.184 1966.47 913.317 1966.08 913.367L1964.64 913.584C1963.39 913.767 1962.79 914.25 1962.79 915.15C1962.79 915.95 1963.4 916.416 1964.45 916.416C1966.1 916.416 1967.08 915.45 1967.08 914.5V913.017ZM1967.96 888.522V894.254H1966.54V888.372C1966.54 887.423 1965.92 886.69 1964.77 886.69C1963.16 886.69 1962.24 887.772 1962.24 889.339V894.254H1960.82V885.64H1962.16V887.006H1962.19C1962.82 885.923 1963.72 885.44 1964.99 885.44C1967.07 885.44 1967.96 886.54 1967.96 888.522ZM1957.78 863.511C1958.54 862.661 1959.53 862.228 1960.69 862.228C1961.93 862.228 1962.89 862.678 1963.57 863.561C1964.26 864.444 1964.59 865.593 1964.59 866.993V867.159H1958.14V867.259C1958.14 868.909 1959.16 869.992 1960.83 869.992C1962.09 869.992 1962.83 869.375 1963.06 868.309H1964.46C1964.07 870.225 1962.73 871.241 1960.78 871.241C1959.88 871.241 1959.11 871.041 1958.49 870.642C1957.23 869.808 1956.64 868.176 1956.64 866.676C1956.64 865.41 1957.01 864.36 1957.78 863.511ZM1963.09 865.91C1963.01 864.527 1961.99 863.477 1960.59 863.477C1959.26 863.477 1958.26 864.444 1958.14 865.91H1963.09ZM1958.61 894.254H1957.19V885.64H1958.61V894.254ZM1957.19 882.358H1958.61V884.09H1957.19V882.358ZM1972.69 890.338C1970.48 889.872 1969.74 889.172 1969.74 887.889C1969.74 886.373 1971.09 885.44 1972.98 885.44C1975.29 885.44 1976.37 886.34 1976.49 888.139H1975.08V888.122C1974.99 887.206 1974.21 886.69 1973.08 886.69C1971.94 886.69 1971.24 887.089 1971.24 887.789C1971.24 888.422 1971.83 888.789 1972.99 889.055L1974.33 889.355C1975.99 889.722 1976.87 890.438 1976.87 891.738C1976.87 893.437 1975.46 894.454 1973.21 894.454C1971.03 894.454 1969.64 893.471 1969.56 891.538H1970.98C1971.01 892.604 1971.86 893.204 1973.29 893.204C1974.66 893.204 1975.38 892.771 1975.38 891.921C1975.38 891.538 1975.19 891.221 1974.84 891.005C1974.49 890.788 1973.77 890.572 1972.69 890.338ZM1985.05 859.145H1986.47V871.041H1985.05V859.145ZM1982.75 894.454C1981.68 894.454 1980.57 894.02 1979.97 893.104H1979.93V897.553H1978.52V885.64H1979.93V886.806H1979.97C1980.42 885.923 1981.4 885.44 1982.72 885.44C1985.21 885.44 1986.68 887.323 1986.68 889.972C1986.68 892.604 1985.18 894.454 1982.75 894.454ZM1982.5 886.69C1980.8 886.69 1979.88 888.056 1979.88 889.938C1979.88 891.921 1980.88 893.204 1982.6 893.204C1984.23 893.204 1985.18 891.971 1985.18 889.872C1985.18 888.056 1984.18 886.69 1982.5 886.69ZM2004.43 886.773C2005.11 887.656 2005.44 888.805 2005.44 890.205V890.372H1999V890.472C1999 892.121 2000.01 893.204 2001.68 893.204C2002.95 893.204 2003.68 892.588 2003.91 891.521H2005.31C2004.93 893.437 2003.58 894.454 2001.63 894.454C2000.73 894.454 1999.96 894.254 1999.35 893.854C1998.08 893.021 1997.5 891.388 1997.5 889.888C1997.5 888.622 1997.87 887.573 1998.63 886.723C1999.4 885.873 2000.38 885.44 2001.55 885.44C2002.78 885.44 2003.75 885.89 2004.43 886.773ZM2001.45 886.69C2000.11 886.69 1999.11 887.656 1999 889.122H2003.95C2003.86 887.739 2002.85 886.69 2001.45 886.69ZM1997.92 871.041V862.428H1999.25V864.244H1999.28C1999.95 862.877 2000.9 862.228 2002.25 862.228C2002.31 862.228 2002.36 862.228 2002.45 862.228V863.727C2000.33 863.727 1999.33 864.827 1999.33 867.193V871.041H1997.92ZM2002.7 912.268L2004.04 912.568C2005.7 912.934 2006.59 913.651 2006.59 914.95C2006.59 916.65 2005.17 917.666 2002.92 917.666C2000.74 917.666 1999.35 916.683 1999.27 914.75H2000.69C2000.72 915.816 2001.57 916.416 2003 916.416C2004.37 916.416 2005.09 915.983 2005.09 915.133C2005.09 914.75 2004.9 914.434 2004.55 914.217C2004.2 914 2003.49 913.784 2002.4 913.551C2000.19 913.084 1999.46 912.384 1999.46 911.101C1999.46 909.585 2000.81 908.652 2002.69 908.652C2005 908.652 2006.09 909.552 2006.2 911.351H2004.79V911.335C2004.7 910.418 2003.92 909.902 2002.79 909.902C2001.65 909.902 2000.95 910.302 2000.95 911.001C2000.95 911.635 2001.54 912.001 2002.7 912.268ZM2028.57 886.773C2029.25 887.656 2029.59 888.805 2029.59 890.205V890.372H2023.14V890.472C2023.14 892.121 2024.15 893.204 2025.82 893.204C2027.09 893.204 2027.82 892.588 2028.05 891.521H2029.45C2029.07 893.437 2027.72 894.454 2025.77 894.454C2024.87 894.454 2024.1 894.254 2023.49 893.854C2022.22 893.021 2021.64 891.388 2021.64 889.888C2021.64 888.622 2022.01 887.573 2022.77 886.723C2023.54 885.873 2024.52 885.44 2025.69 885.44C2026.92 885.44 2027.89 885.89 2028.57 886.773ZM2025.59 886.69C2024.25 886.69 2023.26 887.656 2023.14 889.122H2028.09C2028 887.739 2026.99 886.69 2025.59 886.69ZM2025.98 859.012C2026.2 859.012 2026.72 859.079 2026.92 859.145V860.378C2026.7 860.295 2026.33 860.262 2026.12 860.262C2025.33 860.262 2025.03 860.612 2025.03 861.195V862.428H2026.7V863.677H2025.03V871.041H2023.62V863.677H2022.17V862.428H2023.62V861.078C2023.62 859.812 2024.42 859.012 2025.98 859.012ZM2039.75 931.864C2042.4 931.864 2043.93 933.747 2043.93 936.38C2043.93 939.045 2042.28 940.878 2039.75 940.878C2037.25 940.878 2035.57 939.129 2035.57 936.38C2035.57 933.631 2037.17 931.864 2039.75 931.864ZM2039.75 939.629C2041.3 939.629 2042.43 938.329 2042.43 936.38C2042.43 934.43 2041.3 933.114 2039.73 933.114C2038.23 933.114 2037.07 934.38 2037.07 936.38C2037.07 938.329 2038.18 939.629 2039.75 939.629ZM2037.53 987.103H2036.12V975.207H2037.53V987.103ZM2041.25 976.939H2039.83V975.207H2041.25V976.939ZM2041.25 987.103H2039.83V978.489H2041.25V987.103ZM2044.01 975.906H2045.43V978.489H2047.14V979.738H2045.43V985.137C2045.43 985.57 2045.56 985.786 2045.86 985.82C2046.14 985.836 2046.44 985.853 2046.74 985.853H2047.14V987.103H2045.98C2044.41 987.103 2044.01 986.603 2044.01 985.303V979.738H2042.54V978.489H2044.01V975.906ZM2046.09 962.758C2045.34 963.641 2044.32 964.09 2043.06 964.09C2041.29 964.09 2040.21 963.224 2040.21 961.675C2040.21 960.908 2040.46 960.292 2040.96 959.842C2041.44 959.375 2042.59 959.042 2044.44 958.809C2045.69 958.659 2046.02 958.359 2046.02 957.743C2046.02 956.793 2045.44 956.326 2044.11 956.326C2042.71 956.326 2042.03 956.843 2041.96 957.959H2040.54C2040.64 956.043 2041.94 955.077 2044.21 955.077C2046.64 955.077 2047.42 956.043 2047.42 957.393V962.358C2047.42 962.674 2047.57 962.841 2047.87 962.841C2048.01 962.841 2048.17 962.807 2048.31 962.758V963.857C2048.04 964.007 2047.69 964.09 2047.29 964.09C2046.52 964.09 2046.09 963.657 2046.09 962.758ZM2046.01 959.442C2045.77 959.609 2045.39 959.742 2045.01 959.792L2043.56 960.008C2042.31 960.192 2041.71 960.675 2041.71 961.575C2041.71 962.374 2042.33 962.841 2043.37 962.841C2045.02 962.841 2046.01 961.874 2046.01 960.925V959.442ZM2044.77 937.962H2046.18C2046.22 939.029 2047.07 939.629 2048.5 939.629C2049.87 939.629 2050.58 939.195 2050.58 938.346C2050.58 937.962 2050.4 937.646 2050.05 937.429C2049.7 937.213 2048.98 936.996 2047.9 936.763C2045.68 936.296 2044.95 935.597 2044.95 934.314C2044.95 932.797 2046.3 931.864 2048.18 931.864C2050.5 931.864 2051.58 932.764 2051.7 934.564H2050.28V934.547C2050.2 933.631 2049.42 933.114 2048.28 933.114C2047.15 933.114 2046.45 933.514 2046.45 934.214C2046.45 934.847 2047.03 935.213 2048.2 935.48L2049.53 935.78C2051.2 936.146 2052.08 936.863 2052.08 938.162C2052.08 939.862 2050.67 940.878 2048.42 940.878C2046.23 940.878 2044.85 939.895 2044.77 937.962ZM2052.8 982.021C2054.05 981.871 2054.38 981.571 2054.38 980.955C2054.38 980.005 2053.8 979.539 2052.46 979.539C2051.06 979.539 2050.38 980.055 2050.31 981.171H2048.9C2049 979.255 2050.3 978.289 2052.56 978.289C2055 978.289 2055.78 979.255 2055.78 980.605V985.57C2055.78 985.886 2055.93 986.053 2056.23 986.053C2056.36 986.053 2056.53 986.02 2056.66 985.97V987.069C2056.4 987.219 2056.05 987.303 2055.65 987.303C2054.88 987.303 2054.45 986.869 2054.45 985.97C2053.7 986.853 2052.68 987.303 2051.41 987.303C2049.65 987.303 2048.57 986.436 2048.57 984.887C2048.57 984.12 2048.82 983.504 2049.32 983.054C2049.8 982.588 2050.95 982.254 2052.8 982.021ZM2051.73 986.053C2053.38 986.053 2054.36 985.087 2054.36 984.137V982.654C2054.13 982.821 2053.75 982.954 2053.36 983.004L2051.91 983.221C2050.66 983.404 2050.06 983.887 2050.06 984.787C2050.06 985.587 2050.68 986.053 2051.73 986.053ZM2055.68 958.009C2055.68 957.059 2055.06 956.326 2053.91 956.326C2052.29 956.326 2051.38 957.409 2051.38 958.975V963.89H2049.96V955.277H2051.29V956.643H2051.33C2051.96 955.56 2052.86 955.077 2054.12 955.077C2056.21 955.077 2057.09 956.176 2057.09 958.159V963.89H2055.68V958.009ZM2053.21 936.313C2053.21 935.047 2053.57 933.997 2054.34 933.147C2055.11 932.298 2056.09 931.864 2057.26 931.864C2058.49 931.864 2059.46 932.314 2060.14 933.197C2060.82 934.08 2061.15 935.23 2061.15 936.63V936.796H2054.71V936.896C2054.71 938.546 2055.72 939.629 2057.39 939.629C2058.66 939.629 2059.39 939.012 2059.62 937.946H2061.02C2060.64 939.862 2059.29 940.878 2057.34 940.878C2056.44 940.878 2055.67 940.678 2055.06 940.278C2053.79 939.445 2053.21 937.812 2053.21 936.313ZM2059.65 935.547C2059.57 934.164 2058.56 933.114 2057.16 933.114C2055.82 933.114 2054.82 934.08 2054.71 935.547H2059.65ZM2059.6 980.305H2059.63C2060.3 978.939 2061.25 978.289 2062.6 978.289C2062.66 978.289 2062.71 978.289 2062.8 978.289V979.788C2060.68 979.788 2059.68 980.888 2059.68 983.254V987.103H2058.27V978.489H2059.6V980.305ZM2065.39 976.939H2063.97V975.207H2065.39V976.939ZM2065.39 987.103H2063.97V978.489H2065.39V987.103ZM2062.74 964.09C2060.33 964.09 2058.78 962.241 2058.78 959.559C2058.78 956.926 2060.23 955.077 2062.69 955.077C2063.81 955.077 2064.96 955.56 2065.49 956.426H2065.53V951.994H2066.94V963.89H2065.53V962.724H2065.49C2065.04 963.607 2064.03 964.09 2062.74 964.09ZM2065.58 959.592C2065.58 957.643 2064.59 956.326 2062.84 956.326C2061.21 956.326 2060.28 957.609 2060.28 959.659C2060.28 961.475 2061.28 962.841 2062.94 962.841C2064.64 962.841 2065.58 961.491 2065.58 959.592ZM2071.37 982.021C2072.62 981.871 2072.95 981.571 2072.95 980.955C2072.95 980.005 2072.37 979.539 2071.03 979.539C2069.63 979.539 2068.95 980.055 2068.88 981.171H2067.47C2067.57 979.255 2068.87 978.289 2071.13 978.289C2073.57 978.289 2074.35 979.255 2074.35 980.605V985.57C2074.35 985.886 2074.5 986.053 2074.8 986.053C2074.93 986.053 2075.1 986.02 2075.23 985.97V987.069C2074.97 987.219 2074.62 987.303 2074.22 987.303C2073.45 987.303 2073.02 986.869 2073.02 985.97C2072.27 986.853 2071.25 987.303 2069.98 987.303C2068.22 987.303 2067.14 986.436 2067.14 984.887C2067.14 984.12 2067.39 983.504 2067.89 983.054C2068.37 982.588 2069.52 982.254 2071.37 982.021ZM2070.3 986.053C2071.95 986.053 2072.93 985.087 2072.93 984.137V982.654C2072.7 982.821 2072.32 982.954 2071.93 983.004L2070.48 983.221C2069.23 983.404 2068.63 983.887 2068.63 984.787C2068.63 985.587 2069.25 986.053 2070.3 986.053ZM2074.68 963.89V956.526H2073.23V955.277H2074.68V953.927C2074.68 952.661 2075.48 951.861 2077.05 951.861C2077.27 951.861 2077.78 951.928 2077.98 951.994V953.227C2077.77 953.144 2077.4 953.111 2077.18 953.111C2076.4 953.111 2076.1 953.461 2076.1 954.044V955.277H2077.77V956.526H2076.1V963.89H2074.68ZM2078.22 979.855H2078.25C2078.89 978.772 2079.79 978.289 2081.05 978.289C2083.13 978.289 2084.02 979.389 2084.02 981.371V987.103H2082.6V981.221C2082.6 980.272 2081.98 979.539 2080.83 979.539C2079.22 979.539 2078.3 980.622 2078.3 982.188V987.103H2076.89V978.489H2078.22V979.855ZM2083.87 963.89H2082.46V955.277H2083.79V956.643H2083.82C2084.46 955.56 2085.36 955.077 2086.62 955.077C2088.7 955.077 2089.59 956.176 2089.59 958.159V963.89H2088.17V958.009C2088.17 957.059 2087.56 956.326 2086.41 956.326C2084.79 956.326 2083.87 957.409 2083.87 958.975V963.89ZM2091.36 975.906H2092.78V978.489H2094.5V979.738H2092.78V985.137C2092.78 985.57 2092.91 985.786 2093.21 985.82C2093.5 985.836 2093.8 985.853 2094.1 985.853H2094.5V987.103H2093.33C2091.76 987.103 2091.36 986.603 2091.36 985.303V979.738H2089.9V978.489H2091.36V975.906ZM2098.64 962.841C2100.01 962.841 2100.72 962.408 2100.72 961.558C2100.72 961.175 2100.54 960.858 2100.19 960.642C2099.84 960.425 2099.12 960.208 2098.04 959.975C2095.82 959.509 2095.09 958.809 2095.09 957.526C2095.09 956.01 2096.44 955.077 2098.32 955.077C2100.64 955.077 2101.72 955.976 2101.84 957.776H2100.42V957.759C2100.34 956.843 2099.55 956.326 2098.42 956.326C2097.29 956.326 2096.59 956.726 2096.59 957.426C2096.59 958.059 2097.17 958.426 2098.34 958.692L2099.67 958.992C2101.34 959.359 2102.22 960.075 2102.22 961.375C2102.22 963.074 2100.8 964.09 2098.55 964.09C2096.37 964.09 2094.99 963.107 2094.91 961.175H2096.32C2096.36 962.241 2097.21 962.841 2098.64 962.841ZM2100.1 978.289C2102.75 978.289 2104.28 980.172 2104.28 982.804C2104.28 985.47 2102.63 987.303 2100.1 987.303C2097.6 987.303 2095.92 985.553 2095.92 982.804C2095.92 980.055 2097.52 978.289 2100.1 978.289ZM2100.1 986.053C2101.65 986.053 2102.78 984.754 2102.78 982.804C2102.78 980.855 2101.65 979.539 2100.08 979.539C2098.58 979.539 2097.42 980.805 2097.42 982.804C2097.42 984.754 2098.53 986.053 2100.1 986.053ZM2103.81 963.89V951.994H2105.23V956.543H2105.26C2105.66 955.627 2106.76 955.077 2107.98 955.077C2110.06 955.077 2110.94 956.176 2110.94 958.159V963.89H2109.53V958.009C2109.53 957.059 2108.91 956.326 2107.76 956.326C2106.16 956.326 2105.23 957.409 2105.23 958.975V963.89H2103.81ZM2107 979.855H2107.04C2107.67 978.772 2108.57 978.289 2109.84 978.289C2111.92 978.289 2112.8 979.389 2112.8 981.371V987.103H2111.38V981.221C2111.38 980.272 2110.77 979.539 2109.62 979.539C2108 979.539 2107.09 980.622 2107.09 982.188V987.103H2105.67V978.489H2107V979.855ZM2113.76 956.36C2114.53 955.51 2115.51 955.077 2116.68 955.077C2117.91 955.077 2118.88 955.527 2119.56 956.41C2120.24 957.293 2120.58 958.442 2120.58 959.842V960.008H2114.13V960.108C2114.13 961.758 2115.15 962.841 2116.81 962.841C2118.08 962.841 2118.81 962.224 2119.04 961.158H2120.45C2120.06 963.074 2118.71 964.09 2116.76 964.09C2115.86 964.09 2115.1 963.89 2114.48 963.491C2113.21 962.658 2112.63 961.025 2112.63 959.525C2112.63 958.259 2113 957.209 2113.76 956.36ZM2119.08 958.759C2118.99 957.376 2117.98 956.326 2116.58 956.326C2115.25 956.326 2114.25 957.293 2114.13 958.759H2119.08ZM2118.54 978.289C2119.77 978.289 2120.74 978.739 2121.42 979.622C2122.1 980.505 2122.43 981.655 2122.43 983.054V983.221H2115.99V983.321C2115.99 984.97 2117 986.053 2118.67 986.053C2119.94 986.053 2120.67 985.437 2120.9 984.37H2122.3C2121.92 986.286 2120.57 987.303 2118.62 987.303C2117.72 987.303 2116.95 987.103 2116.34 986.703C2115.07 985.87 2114.49 984.237 2114.49 982.738C2114.49 981.471 2114.85 980.422 2115.62 979.572C2116.39 978.722 2117.37 978.289 2118.54 978.289ZM2120.94 981.971C2120.85 980.588 2119.84 979.539 2118.44 979.539C2117.1 979.539 2116.1 980.505 2115.99 981.971H2120.94ZM2125.83 955.077C2126.95 955.077 2128.1 955.56 2128.63 956.426H2128.66V951.994H2130.08V963.89H2128.66V962.724H2128.63C2128.18 963.607 2127.16 964.09 2125.88 964.09C2123.46 964.09 2121.92 962.241 2121.92 959.559C2121.92 956.926 2123.36 955.077 2125.83 955.077ZM2126.08 962.841C2127.78 962.841 2128.71 961.491 2128.71 959.592C2128.71 957.643 2127.73 956.326 2125.98 956.326C2124.35 956.326 2123.41 957.609 2123.41 959.659C2123.41 961.475 2124.41 962.841 2126.08 962.841ZM2127.42 986.053C2128.79 986.053 2129.5 985.62 2129.5 984.77C2129.5 984.387 2129.32 984.07 2128.97 983.854C2128.62 983.637 2127.91 983.421 2126.82 983.187C2124.61 982.721 2123.87 982.021 2123.87 980.738C2123.87 979.222 2125.22 978.289 2127.1 978.289C2129.42 978.289 2130.5 979.189 2130.62 980.988H2129.2V980.971C2129.12 980.055 2128.34 979.539 2127.21 979.539C2126.07 979.539 2125.37 979.938 2125.37 980.638C2125.37 981.271 2125.95 981.638 2127.12 981.904L2128.45 982.204C2130.12 982.571 2131 983.287 2131 984.587C2131 986.286 2129.59 987.303 2127.34 987.303C2125.16 987.303 2123.77 986.32 2123.69 984.387H2125.11C2125.14 985.453 2125.99 986.053 2127.42 986.053ZM2128.61 933.447C2127.93 933.88 2127.51 934.78 2127.51 935.28V940.678H2126.1V932.064H2127.43V933.331H2127.46C2128.11 932.348 2129.03 931.864 2130.24 931.864C2131.51 931.864 2132.31 932.398 2132.61 933.331C2133.19 932.414 2134.18 931.864 2135.33 931.864C2137.26 931.864 2138.18 932.814 2138.18 934.314V940.678H2136.76V934.963C2136.76 933.731 2136.26 933.114 2135.09 933.114C2133.68 933.114 2132.84 934.064 2132.84 935.263V940.678H2131.43V934.963C2131.43 933.731 2130.93 933.114 2129.81 933.114C2129.36 933.114 2128.96 933.231 2128.61 933.447ZM2134.76 987.103H2132.91V985.253H2134.76V987.103ZM2138.74 953.727H2137.32V951.994H2138.74V953.727ZM2138.74 963.89H2137.32V955.277H2138.74V963.89ZM2141.52 930.515H2140.11V928.782H2141.52V930.515ZM2141.52 940.678H2140.11V932.064H2141.52V940.678ZM2142.29 956.643H2142.32C2142.95 955.56 2143.85 955.077 2145.12 955.077C2147.2 955.077 2148.08 956.176 2148.08 958.159V963.89H2146.67V958.009C2146.67 957.059 2146.05 956.326 2144.9 956.326C2143.29 956.326 2142.37 957.409 2142.37 958.975V963.89H2140.95V955.277H2142.29V956.643ZM2143.19 937.962H2144.6C2144.64 939.029 2145.49 939.629 2146.92 939.629C2148.29 939.629 2149 939.195 2149 938.346C2149 937.962 2148.82 937.646 2148.47 937.429C2148.12 937.213 2147.4 936.996 2146.32 936.763C2144.1 936.296 2143.37 935.597 2143.37 934.314C2143.37 932.797 2144.72 931.864 2146.6 931.864C2148.92 931.864 2150 932.764 2150.12 934.564H2148.7V934.547C2148.62 933.631 2147.84 933.114 2146.7 933.114C2145.57 933.114 2144.87 933.514 2144.87 934.214C2144.87 934.847 2145.45 935.213 2146.62 935.48L2147.95 935.78C2149.62 936.146 2150.5 936.863 2150.5 938.162C2150.5 939.862 2149.09 940.878 2146.84 940.878C2144.65 940.878 2143.27 939.895 2143.19 937.962ZM2142.37 886.906H2142.4C2142.8 885.99 2143.9 885.44 2145.12 885.44C2147.2 885.44 2148.08 886.54 2148.08 888.522V894.254H2146.67V888.372C2146.67 887.423 2146.05 886.69 2144.9 886.69C2143.3 886.69 2142.37 887.772 2142.37 889.339V894.254H2140.95V882.358H2142.37V886.906ZM2139.55 915.9L2141.48 908.852H2142.95L2140.21 917.449L2140.2 917.466H2138.7L2136.93 910.618H2136.91L2135.18 917.466H2133.65L2130.88 908.852H2132.45L2134.4 915.9H2134.43L2136.17 908.852H2137.71L2139.53 915.9H2139.55ZM2137.78 892.971C2138.06 892.987 2138.36 893.004 2138.66 893.004H2139.06V894.254H2137.9C2136.33 894.254 2135.93 893.754 2135.93 892.454V886.889H2134.46V885.64H2135.93V883.057H2137.35V885.64H2139.06V886.889H2137.35V892.288C2137.35 892.721 2137.48 892.937 2137.78 892.971ZM2132.84 887.756V892.721C2132.84 893.037 2132.99 893.204 2133.29 893.204C2133.43 893.204 2133.59 893.171 2133.73 893.121V894.22C2133.46 894.37 2133.11 894.454 2132.71 894.454C2131.94 894.454 2131.51 894.02 2131.51 893.121C2130.76 894.004 2129.75 894.454 2128.48 894.454C2126.71 894.454 2125.63 893.587 2125.63 892.038C2125.63 891.271 2125.88 890.655 2126.38 890.205C2126.86 889.739 2128.01 889.405 2129.86 889.172C2131.11 889.022 2131.44 888.722 2131.44 888.106C2131.44 887.156 2130.86 886.69 2129.53 886.69C2128.13 886.69 2127.45 887.206 2127.38 888.322H2125.96C2126.06 886.406 2127.36 885.44 2129.63 885.44C2132.06 885.44 2132.84 886.406 2132.84 887.756ZM2131.43 889.805C2131.19 889.972 2130.81 890.105 2130.43 890.155L2128.98 890.372C2127.73 890.555 2127.13 891.038 2127.13 891.938C2127.13 892.738 2127.75 893.204 2128.79 893.204C2130.44 893.204 2131.43 892.238 2131.43 891.288V889.805ZM2120.13 840.382H2120.17C2120.62 839.499 2121.58 839.015 2122.92 839.015C2125.38 839.015 2126.88 840.931 2126.88 843.547C2126.88 846.18 2125.38 848.029 2122.95 848.029C2121.88 848.029 2120.77 847.596 2120.17 846.68H2120.13V847.829H2118.72V835.933H2120.13V840.382ZM2122.8 846.78C2124.43 846.78 2125.38 845.547 2125.38 843.447C2125.38 841.631 2124.38 840.265 2122.7 840.265C2121.03 840.265 2120.08 841.631 2120.08 843.514C2120.08 845.497 2121.08 846.78 2122.8 846.78ZM2115.88 862.228C2118.53 862.228 2120.07 864.11 2120.07 866.743C2120.07 869.409 2118.42 871.241 2115.88 871.241C2113.39 871.241 2111.7 869.492 2111.7 866.743C2111.7 863.994 2113.3 862.228 2115.88 862.228ZM2115.88 869.992C2117.43 869.992 2118.57 868.692 2118.57 866.743C2118.57 864.793 2117.43 863.477 2115.87 863.477C2114.37 863.477 2113.2 864.744 2113.2 866.743C2113.2 868.692 2114.32 869.992 2115.88 869.992ZM2112.52 887.456H2112.56C2113.22 886.09 2114.17 885.44 2115.52 885.44C2115.59 885.44 2115.64 885.44 2115.72 885.44V886.939C2113.61 886.939 2112.61 888.039 2112.61 890.405V894.254H2111.19V885.64H2112.52V887.456ZM2118.19 893.854C2116.93 893.021 2116.35 891.388 2116.35 889.888C2116.35 888.622 2116.71 887.573 2117.48 886.723C2118.24 885.873 2119.23 885.44 2120.39 885.44C2121.63 885.44 2122.59 885.89 2123.28 886.773C2123.96 887.656 2124.29 888.805 2124.29 890.205V890.372H2117.84V890.472C2117.84 892.121 2118.86 893.204 2120.53 893.204C2121.79 893.204 2122.53 892.588 2122.76 891.521H2124.16C2123.78 893.437 2122.43 894.454 2120.48 894.454C2119.58 894.454 2118.81 894.254 2118.19 893.854ZM2122.79 889.122C2122.71 887.739 2121.69 886.69 2120.29 886.69C2118.96 886.69 2117.96 887.656 2117.84 889.122H2122.79ZM2121.4 871.041V862.428H2122.74V864.244H2122.77C2123.44 862.877 2124.39 862.228 2125.74 862.228C2125.8 862.228 2125.85 862.228 2125.94 862.228V863.727C2123.82 863.727 2122.82 864.827 2122.82 867.193V871.041H2121.4ZM2121.52 908.852H2122.96V907.503C2122.96 906.236 2123.76 905.437 2125.33 905.437C2125.55 905.437 2126.06 905.503 2126.26 905.57V906.803C2126.05 906.72 2125.68 906.686 2125.46 906.686C2124.68 906.686 2124.38 907.036 2124.38 907.619V908.852H2126.05V910.102H2124.38V917.466H2122.96V910.102H2121.52V908.852ZM2123.88 940.678H2122.47V932.064H2123.88V940.678ZM2122.47 928.782H2123.88V930.515H2122.47V928.782ZM2112.63 913.167C2112.63 910.418 2114.23 908.652 2116.81 908.652C2119.46 908.652 2120.99 910.535 2120.99 913.167C2120.99 915.833 2119.35 917.666 2116.81 917.666C2114.31 917.666 2112.63 915.916 2112.63 913.167ZM2116.81 916.416C2118.36 916.416 2119.49 915.117 2119.49 913.167C2119.49 911.218 2118.36 909.902 2116.8 909.902C2115.3 909.902 2114.13 911.168 2114.13 913.167C2114.13 915.117 2115.25 916.416 2116.81 916.416ZM2119.21 939.395C2119.49 939.412 2119.79 939.429 2120.09 939.429H2120.49V940.678H2119.33C2117.76 940.678 2117.36 940.178 2117.36 938.879V933.314H2115.9V932.064H2117.36V929.482H2118.78V932.064H2120.49V933.314H2118.78V938.712C2118.78 939.145 2118.91 939.362 2119.21 939.395ZM2114.81 936.396C2114.81 939.029 2113.31 940.878 2110.88 940.878C2109.81 940.878 2108.7 940.445 2108.1 939.529H2108.06V943.977H2106.65V932.064H2108.06V933.231H2108.1C2108.55 932.348 2109.53 931.864 2110.85 931.864C2113.35 931.864 2114.81 933.747 2114.81 936.396ZM2108.01 936.363C2108.01 938.346 2109.01 939.629 2110.73 939.629C2112.36 939.629 2113.31 938.396 2113.31 936.296C2113.31 934.48 2112.31 933.114 2110.63 933.114C2108.93 933.114 2108.01 934.48 2108.01 936.363ZM2100.5 910.218H2100.54C2101.17 909.135 2102.07 908.652 2103.34 908.652C2105.42 908.652 2106.3 909.752 2106.3 911.735V917.466H2104.88V911.585C2104.88 910.635 2104.27 909.902 2103.12 909.902C2101.5 909.902 2100.59 910.985 2100.59 912.551V917.466H2099.17V908.852H2100.5V910.218ZM2101.03 931.864C2103.68 931.864 2105.21 933.747 2105.21 936.38C2105.21 939.045 2103.56 940.878 2101.03 940.878C2098.53 940.878 2096.85 939.129 2096.85 936.38C2096.85 933.631 2098.45 931.864 2101.03 931.864ZM2101.03 939.629C2102.58 939.629 2103.71 938.329 2103.71 936.38C2103.71 934.43 2102.58 933.114 2101.01 933.114C2099.51 933.114 2098.35 934.38 2098.35 936.38C2098.35 938.329 2099.46 939.629 2101.03 939.629ZM2093.24 963.89H2091.82V955.277H2093.24V963.89ZM2091.82 951.994H2093.24V953.727H2091.82V951.994ZM2097.78 913.167C2097.78 915.833 2096.13 917.666 2093.6 917.666C2091.1 917.666 2089.42 915.916 2089.42 913.167C2089.42 910.418 2091.02 908.652 2093.6 908.652C2096.25 908.652 2097.78 910.535 2097.78 913.167ZM2090.92 913.167C2090.92 915.117 2092.03 916.416 2093.6 916.416C2095.15 916.416 2096.28 915.117 2096.28 913.167C2096.28 911.218 2095.15 909.902 2093.58 909.902C2092.08 909.902 2090.92 911.168 2090.92 913.167ZM2091.13 892.404H2092.98V894.254H2091.13V892.404ZM2091.28 936.38C2091.28 939.045 2089.63 940.878 2087.1 940.878C2084.6 940.878 2082.92 939.129 2082.92 936.38C2082.92 933.631 2084.52 931.864 2087.1 931.864C2089.75 931.864 2091.28 933.747 2091.28 936.38ZM2087.08 933.114C2085.58 933.114 2084.42 934.38 2084.42 936.38C2084.42 938.329 2085.53 939.629 2087.1 939.629C2088.65 939.629 2089.78 938.329 2089.78 936.38C2089.78 934.43 2088.65 933.114 2087.08 933.114ZM2087.67 917.466H2086.25V908.852H2087.67V917.466ZM2086.25 905.57H2087.67V907.303H2086.25V905.57ZM2080.53 963.89H2079.12V955.277H2080.53V963.89ZM2079.12 951.994H2080.53V953.727H2079.12V951.994ZM2079.78 932.064H2081.5V933.314H2079.78V938.712C2079.78 939.145 2079.91 939.362 2080.21 939.395C2080.5 939.412 2080.8 939.429 2081.1 939.429H2081.5V940.678H2080.33C2078.76 940.678 2078.36 940.178 2078.36 938.879V933.314H2076.9V932.064H2078.36V929.482H2079.78V932.064ZM2078.06 910.968V915.933C2078.06 916.25 2078.21 916.416 2078.51 916.416C2078.65 916.416 2078.81 916.383 2078.95 916.333V917.433C2078.68 917.583 2078.33 917.666 2077.93 917.666C2077.16 917.666 2076.73 917.233 2076.73 916.333C2075.98 917.216 2074.96 917.666 2073.7 917.666C2071.93 917.666 2070.85 916.799 2070.85 915.25C2070.85 914.484 2071.1 913.867 2071.6 913.417C2072.08 912.951 2073.23 912.618 2075.08 912.384C2076.33 912.234 2076.66 911.934 2076.66 911.318C2076.66 910.368 2076.08 909.902 2074.75 909.902C2073.35 909.902 2072.66 910.418 2072.6 911.535H2071.18C2071.28 909.619 2072.58 908.652 2074.85 908.652C2077.28 908.652 2078.06 909.619 2078.06 910.968ZM2076.65 913.017C2076.41 913.184 2076.03 913.317 2075.65 913.367L2074.2 913.584C2072.95 913.767 2072.35 914.25 2072.35 915.15C2072.35 915.95 2072.96 916.416 2074.01 916.416C2075.66 916.416 2076.65 915.45 2076.65 914.5V913.017ZM2071.72 863.794H2071.75C2072.39 862.711 2073.29 862.228 2074.55 862.228C2076.64 862.228 2077.52 863.327 2077.52 865.31V871.041H2076.1V865.16C2076.1 864.21 2075.48 863.477 2074.33 863.477C2072.72 863.477 2071.8 864.56 2071.8 866.126V871.041H2070.39V862.428H2071.72V863.794ZM2071.77 885.44C2073.85 885.44 2074.73 886.54 2074.73 888.522V894.254H2073.32V888.372C2073.32 887.423 2072.7 886.69 2071.55 886.69C2069.93 886.69 2069.02 887.772 2069.02 889.339V894.254H2067.6V885.64H2068.93V887.006H2068.97C2069.6 885.923 2070.5 885.44 2071.77 885.44ZM2066.1 841.031H2066.13C2066.8 839.665 2067.75 839.015 2069.1 839.015C2069.16 839.015 2069.21 839.015 2069.3 839.015V840.515C2067.18 840.515 2066.18 841.615 2066.18 843.98V847.829H2064.77V839.215H2066.1V841.031ZM2065.38 862.228C2065.45 862.228 2065.5 862.228 2065.58 862.228V863.727C2063.47 863.727 2062.47 864.827 2062.47 867.193V871.041H2061.05V862.428H2062.39V864.244H2062.42C2063.08 862.877 2064.03 862.228 2065.38 862.228ZM2059.25 839.015C2061.9 839.015 2063.43 840.898 2063.43 843.531C2063.43 846.196 2061.78 848.029 2059.25 848.029C2056.75 848.029 2055.06 846.28 2055.06 843.531C2055.06 840.781 2056.66 839.015 2059.25 839.015ZM2059.25 846.78C2060.8 846.78 2061.93 845.48 2061.93 843.531C2061.93 841.581 2060.8 840.265 2059.23 840.265C2057.73 840.265 2056.56 841.531 2056.56 843.531C2056.56 845.48 2057.68 846.78 2059.25 846.78ZM2053.23 868.292C2053.23 869.292 2053.9 869.992 2054.98 869.992C2056.63 869.992 2057.53 868.909 2057.53 867.343V862.428H2058.95V871.041H2057.61V869.675H2057.58C2056.97 870.775 2055.98 871.241 2054.78 871.241C2052.77 871.241 2051.82 870.192 2051.82 868.176V862.428H2053.23V868.292ZM2058.16 916.333C2057.41 917.216 2056.39 917.666 2055.13 917.666C2053.36 917.666 2052.28 916.799 2052.28 915.25C2052.28 914.484 2052.53 913.867 2053.03 913.417C2053.51 912.951 2054.66 912.618 2056.51 912.384C2057.76 912.234 2058.09 911.934 2058.09 911.318C2058.09 910.368 2057.51 909.902 2056.18 909.902C2054.78 909.902 2054.09 910.418 2054.03 911.535H2052.61C2052.71 909.619 2054.01 908.652 2056.28 908.652C2058.71 908.652 2059.49 909.619 2059.49 910.968V915.933C2059.49 916.25 2059.64 916.416 2059.94 916.416C2060.08 916.416 2060.24 916.383 2060.38 916.333V917.433C2060.11 917.583 2059.76 917.666 2059.36 917.666C2058.59 917.666 2058.16 917.233 2058.16 916.333ZM2058.08 913.017C2057.84 913.184 2057.46 913.317 2057.08 913.367L2055.63 913.584C2054.38 913.767 2053.78 914.25 2053.78 915.15C2053.78 915.95 2054.39 916.416 2055.44 916.416C2057.09 916.416 2058.08 915.45 2058.08 914.5V913.017ZM2057.85 889.888C2057.85 888.622 2058.22 887.573 2058.98 886.723C2059.75 885.873 2060.73 885.44 2061.9 885.44C2063.13 885.44 2064.1 885.89 2064.78 886.773C2065.46 887.656 2065.8 888.805 2065.8 890.205V890.372H2059.35V890.472C2059.35 892.121 2060.37 893.204 2062.03 893.204C2063.3 893.204 2064.03 892.588 2064.26 891.521H2065.66C2065.28 893.437 2063.93 894.454 2061.98 894.454C2061.08 894.454 2060.32 894.254 2059.7 893.854C2058.43 893.021 2057.85 891.388 2057.85 889.888ZM2064.3 889.122C2064.21 887.739 2063.2 886.69 2061.8 886.69C2060.47 886.69 2059.47 887.656 2059.35 889.122H2064.3ZM2061.98 908.852H2063.31V910.668H2063.35C2064.01 909.302 2064.96 908.652 2066.31 908.652C2066.38 908.652 2066.43 908.652 2066.51 908.652V910.152C2064.4 910.152 2063.4 911.251 2063.4 913.617V917.466H2061.98V908.852ZM2066.76 859.145H2068.17V860.878H2066.76V859.145ZM2068.17 871.041H2066.76V862.428H2068.17V871.041ZM2067.68 905.57H2069.1V907.303H2067.68V905.57ZM2069.1 917.466H2067.68V908.852H2069.1V917.466ZM2070.66 928.782V940.678H2069.24V939.512H2069.21C2068.76 940.395 2067.74 940.878 2066.46 940.878C2064.04 940.878 2062.49 939.029 2062.49 936.346C2062.49 933.714 2063.94 931.864 2066.41 931.864C2067.52 931.864 2068.67 932.348 2069.21 933.214H2069.24V928.782H2070.66ZM2066.56 933.114C2064.92 933.114 2063.99 934.397 2063.99 936.446C2063.99 938.262 2064.99 939.629 2066.66 939.629C2068.36 939.629 2069.29 938.279 2069.29 936.38C2069.29 934.43 2068.31 933.114 2066.56 933.114ZM2047.56 916.033H2047.59L2049.94 908.852H2051.42L2048.27 917.466H2046.75L2043.56 908.852H2045.14L2047.56 916.033ZM2045.72 886.906H2045.75C2046.4 885.923 2047.32 885.44 2048.54 885.44C2049.8 885.44 2050.6 885.973 2050.9 886.906C2051.49 885.99 2052.47 885.44 2053.62 885.44C2055.55 885.44 2056.47 886.39 2056.47 887.889V894.254H2055.05V888.539C2055.05 887.306 2054.55 886.69 2053.39 886.69C2051.97 886.69 2051.14 887.639 2051.14 888.839V894.254H2049.72V888.539C2049.72 887.306 2049.22 886.69 2048.1 886.69C2047.65 886.69 2047.25 886.806 2046.9 887.023C2046.22 887.456 2045.81 888.356 2045.81 888.855V894.254H2044.39V885.64H2045.72V886.906ZM2082.57 906.27V908.852H2084.28V910.102H2082.57V915.5C2082.57 915.933 2082.7 916.15 2083 916.183C2083.28 916.2 2083.58 916.216 2083.88 916.216H2084.28V917.466H2083.12C2081.55 917.466 2081.15 916.966 2081.15 915.667V910.102H2079.68V908.852H2081.15V906.27H2082.57ZM2085.34 889.055L2086.67 889.355C2088.34 889.722 2089.22 890.438 2089.22 891.738C2089.22 893.437 2087.8 894.454 2085.56 894.454C2083.37 894.454 2081.99 893.471 2081.91 891.538H2083.32C2083.36 892.604 2084.21 893.204 2085.64 893.204C2087.01 893.204 2087.72 892.771 2087.72 891.921C2087.72 891.538 2087.54 891.221 2087.19 891.005C2086.84 890.788 2086.12 890.572 2085.04 890.338C2082.82 889.872 2082.09 889.172 2082.09 887.889C2082.09 886.373 2083.44 885.44 2085.32 885.44C2087.64 885.44 2088.72 886.34 2088.84 888.139H2087.42V888.122C2087.34 887.206 2086.56 886.69 2085.42 886.69C2084.29 886.69 2083.59 887.089 2083.59 887.789C2083.59 888.422 2084.17 888.789 2085.34 889.055ZM2093.6 846.78C2094.87 846.78 2095.6 846.163 2095.83 845.097H2097.23C2096.85 847.013 2095.5 848.029 2093.55 848.029C2092.65 848.029 2091.88 847.829 2091.27 847.429C2090 846.596 2089.42 844.963 2089.42 843.464C2089.42 842.198 2089.79 841.148 2090.55 840.298C2091.32 839.449 2092.3 839.015 2093.47 839.015C2094.7 839.015 2095.67 839.465 2096.35 840.348C2097.03 841.231 2097.37 842.381 2097.37 843.781V843.947H2090.92V844.047C2090.92 845.697 2091.93 846.78 2093.6 846.78ZM2095.87 842.698C2095.78 841.315 2094.77 840.265 2093.37 840.265C2092.03 840.265 2091.03 841.231 2090.92 842.698H2095.87ZM2109.7 890.838C2109.7 892.754 2108.18 894.254 2106.15 894.254H2100.33V882.358H2105.41C2106.88 882.358 2107.88 882.658 2108.4 883.257C2108.93 883.84 2109.2 884.524 2109.2 885.273C2109.2 886.54 2108.55 887.489 2107.43 887.939V887.972C2108.9 888.289 2109.7 889.389 2109.7 890.838ZM2107.61 885.573C2107.61 884.324 2107.03 883.691 2105.18 883.691H2101.91V887.473H2105.16C2106.75 887.473 2107.61 886.923 2107.61 885.573ZM2105.46 888.805H2101.91V892.921H2105.95C2107.23 892.921 2108.11 892.104 2108.11 890.788C2108.11 889.455 2107.16 888.805 2105.46 888.805ZM2129.42 869.759C2129.71 869.775 2130.01 869.792 2130.31 869.792H2130.71V871.041H2129.54C2127.97 871.041 2127.57 870.542 2127.57 869.242V863.677H2126.11V862.428H2127.57V859.845H2128.99V862.428H2130.71V863.677H2128.99V869.075C2128.99 869.509 2129.12 869.725 2129.42 869.759ZM2135.48 865.843L2136.81 866.143C2138.48 866.51 2139.36 867.226 2139.36 868.526C2139.36 870.225 2137.94 871.241 2135.7 871.241C2133.51 871.241 2132.13 870.258 2132.05 868.326H2133.46C2133.5 869.392 2134.34 869.992 2135.78 869.992C2137.14 869.992 2137.86 869.559 2137.86 868.709C2137.86 868.326 2137.68 868.009 2137.33 867.792C2136.98 867.576 2136.26 867.359 2135.18 867.126C2132.96 866.66 2132.23 865.96 2132.23 864.677C2132.23 863.161 2133.58 862.228 2135.46 862.228C2137.78 862.228 2138.86 863.127 2138.98 864.927H2137.56V864.91C2137.48 863.994 2136.69 863.477 2135.56 863.477C2134.43 863.477 2133.73 863.877 2133.73 864.577C2133.73 865.21 2134.31 865.577 2135.48 865.843ZM2146.05 917.066C2144.78 916.233 2144.2 914.6 2144.2 913.101C2144.2 911.834 2144.57 910.785 2145.33 909.935C2146.1 909.085 2147.08 908.652 2148.25 908.652C2149.48 908.652 2150.45 909.102 2151.13 909.985C2151.81 910.868 2152.15 912.018 2152.15 913.417V913.584H2145.7V913.684C2145.7 915.333 2146.71 916.416 2148.38 916.416C2149.65 916.416 2150.38 915.8 2150.61 914.734H2152.01C2151.63 916.65 2150.28 917.666 2148.33 917.666C2147.43 917.666 2146.66 917.466 2146.05 917.066ZM2150.65 912.334C2150.56 910.951 2149.55 909.902 2148.15 909.902C2146.81 909.902 2145.82 910.868 2145.7 912.334H2150.65ZM2155.68 931.864C2156.91 931.864 2157.87 932.314 2158.56 933.197C2159.24 934.08 2159.57 935.23 2159.57 936.63V936.796H2153.13V936.896C2153.13 938.546 2154.14 939.629 2155.81 939.629C2157.08 939.629 2157.81 939.012 2158.04 937.946H2159.44C2159.06 939.862 2157.71 940.878 2155.76 940.878C2154.86 940.878 2154.09 940.678 2153.48 940.278C2152.21 939.445 2151.63 937.812 2151.63 936.313C2151.63 935.047 2151.99 933.997 2152.76 933.147C2153.53 932.298 2154.51 931.864 2155.68 931.864ZM2158.07 935.547C2157.99 934.164 2156.98 933.114 2155.58 933.114C2154.24 933.114 2153.24 934.08 2153.13 935.547H2158.07ZM2157.53 918.432H2158.95C2159 919.332 2160.08 919.832 2161.18 919.832C2162.85 919.832 2163.76 918.716 2163.76 916.533V915.1H2163.73C2163.3 916.949 2162.25 917.566 2161.05 917.566C2158.71 917.566 2157.2 915.8 2157.2 913.201C2157.2 910.585 2158.63 908.652 2161.16 908.652C2162.38 908.652 2163.26 909.219 2163.75 910.085H2163.76V908.852H2165.1V916.816C2165.1 919.532 2163.81 920.965 2161.11 920.965C2159.16 920.965 2157.61 920.098 2157.53 918.432ZM2161.23 909.902C2159.65 909.902 2158.7 911.151 2158.7 913.034C2158.7 915.05 2159.58 916.316 2161.13 916.316C2162.7 916.316 2163.7 914.983 2163.7 912.984C2163.7 911.168 2162.81 909.902 2161.23 909.902ZM2157.53 862.228C2158.77 862.228 2159.73 862.678 2160.41 863.561C2161.1 864.444 2161.43 865.593 2161.43 866.993V867.159H2154.98V867.259C2154.98 868.909 2156 869.992 2157.67 869.992C2158.93 869.992 2159.67 869.375 2159.9 868.309H2161.3C2160.92 870.225 2159.57 871.241 2157.62 871.241C2156.72 871.241 2155.95 871.041 2155.33 870.642C2154.07 869.808 2153.48 868.176 2153.48 866.676C2153.48 865.41 2153.85 864.36 2154.62 863.511C2155.38 862.661 2156.37 862.228 2157.53 862.228ZM2159.93 865.91C2159.85 864.527 2158.83 863.477 2157.43 863.477C2156.1 863.477 2155.1 864.444 2154.98 865.91H2159.93ZM2155.45 917.466H2154.03V908.852H2155.45V917.466ZM2154.03 905.57H2155.45V907.303H2154.03V905.57ZM2153.67 886.69C2152.27 886.69 2151.59 887.206 2151.52 888.322H2150.1C2150.2 886.406 2151.5 885.44 2153.77 885.44C2156.2 885.44 2156.99 886.406 2156.99 887.756V892.721C2156.99 893.037 2157.13 893.204 2157.43 893.204C2157.57 893.204 2157.73 893.171 2157.87 893.121V894.22C2157.6 894.37 2157.25 894.454 2156.85 894.454C2156.08 894.454 2155.65 894.02 2155.65 893.121C2154.9 894.004 2153.89 894.454 2152.62 894.454C2150.85 894.454 2149.77 893.587 2149.77 892.038C2149.77 891.271 2150.02 890.655 2150.52 890.205C2151 889.739 2152.15 889.405 2154 889.172C2155.25 889.022 2155.59 888.722 2155.59 888.106C2155.59 887.156 2155 886.69 2153.67 886.69ZM2155.57 889.805C2155.34 889.972 2154.95 890.105 2154.57 890.155L2153.12 890.372C2151.87 890.555 2151.27 891.038 2151.27 891.938C2151.27 892.738 2151.89 893.204 2152.94 893.204C2154.59 893.204 2155.57 892.238 2155.57 891.288V889.805ZM2161.02 893.104H2160.99V894.254H2159.57V882.358H2160.99V886.806H2161.02C2161.47 885.923 2162.44 885.44 2163.77 885.44C2166.24 885.44 2167.74 887.356 2167.74 889.972C2167.74 892.604 2166.24 894.454 2163.8 894.454C2162.74 894.454 2161.62 894.02 2161.02 893.104ZM2166.24 889.872C2166.24 888.056 2165.24 886.69 2163.55 886.69C2161.89 886.69 2160.94 888.056 2160.94 889.938C2160.94 891.921 2161.94 893.204 2163.65 893.204C2165.29 893.204 2166.24 891.971 2166.24 889.872ZM2168.37 910.118H2168.4C2168.8 909.202 2169.9 908.652 2171.12 908.652C2173.2 908.652 2174.08 909.752 2174.08 911.735V917.466H2172.66V911.585C2172.66 910.635 2172.05 909.902 2170.9 909.902C2169.3 909.902 2168.37 910.985 2168.37 912.551V917.466H2166.95V905.57H2168.37V910.118ZM2172.47 871.041V862.428H2173.8V864.244H2173.84C2174.5 862.877 2175.45 862.228 2176.8 862.228C2176.87 862.228 2176.92 862.228 2177 862.228V863.727C2174.89 863.727 2173.89 864.827 2173.89 867.193V871.041H2172.47ZM2173.85 846.263H2173.88L2176.29 839.215H2177.79L2174.13 848.746C2173.38 850.745 2172.81 851.278 2171.55 851.278C2171.2 851.278 2170.88 851.245 2170.56 851.128V849.828C2170.83 849.912 2171.11 850.028 2171.4 850.028C2171.98 850.028 2172.38 849.745 2172.6 849.162L2173.15 847.779L2169.73 839.215H2171.33L2173.85 846.263ZM2171.24 894.254H2169.82V882.358H2171.24V894.254ZM2161.46 835.933H2162.88V837.666H2161.46V835.933ZM2162.88 847.829H2161.46V839.215H2162.88V847.829ZM2166.67 863.477C2165.27 863.477 2164.58 863.994 2164.52 865.11H2163.1C2163.2 863.194 2164.5 862.228 2166.77 862.228C2169.2 862.228 2169.98 863.194 2169.98 864.544V869.509C2169.98 869.825 2170.13 869.992 2170.43 869.992C2170.57 869.992 2170.73 869.958 2170.87 869.908V871.008C2170.6 871.158 2170.25 871.241 2169.85 871.241C2169.08 871.241 2168.65 870.808 2168.65 869.908C2167.9 870.792 2166.88 871.241 2165.62 871.241C2163.85 871.241 2162.77 870.375 2162.77 868.825C2162.77 868.059 2163.02 867.443 2163.52 866.993C2164 866.526 2165.15 866.193 2167 865.96C2168.25 865.81 2168.58 865.51 2168.58 864.893C2168.58 863.944 2168 863.477 2166.67 863.477ZM2168.57 866.593C2168.33 866.76 2167.95 866.893 2167.57 866.943L2166.12 867.159C2164.87 867.343 2164.27 867.826 2164.27 868.726C2164.27 869.525 2164.88 869.992 2165.93 869.992C2167.58 869.992 2168.57 869.025 2168.57 868.076V866.593ZM2174.12 886.723C2174.88 885.873 2175.87 885.44 2177.03 885.44C2178.26 885.44 2179.23 885.89 2179.91 886.773C2180.6 887.656 2180.93 888.805 2180.93 890.205V890.372H2174.48V890.472C2174.48 892.121 2175.5 893.204 2177.16 893.204C2178.43 893.204 2179.16 892.588 2179.4 891.521H2180.8C2180.41 893.437 2179.06 894.454 2177.12 894.454C2176.22 894.454 2175.45 894.254 2174.83 893.854C2173.57 893.021 2172.98 891.388 2172.98 889.888C2172.98 888.622 2173.35 887.573 2174.12 886.723ZM2179.43 889.122C2179.35 887.739 2178.33 886.69 2176.93 886.69C2175.6 886.69 2174.6 887.656 2174.48 889.122H2179.43ZM2176.78 906.27H2178.2V908.852H2179.92V910.102H2178.2V915.5C2178.2 915.933 2178.33 916.15 2178.63 916.183C2178.92 916.2 2179.22 916.216 2179.52 916.216H2179.92V917.466H2178.75C2177.18 917.466 2176.78 916.966 2176.78 915.667V910.102H2175.32V908.852H2176.78V906.27Z" fill="black"/>
<path d="M1954 756H2085V791H1954V756Z" fill="black"/>
<path d="M1954 719H2078V754H1954V719Z" fill="black"/>
<path fill-rule="evenodd" clip-rule="evenodd" d="M2066.96 776.692V784.685H2062.38V776.575L2054.71 763.856H2059.87L2064.75 772.082L2069.59 763.856H2074.69L2066.96 776.692ZM2052.76 733.241H2052.71V747.185H2048.42V726.356H2052.97L2061.66 740.33H2061.72V726.356H2066.01V747.185H2061.43L2052.76 733.241ZM2039.91 742.547H2032.12L2030.49 747.185H2025.85L2033.75 726.356H2038.45L2046.24 747.185H2041.49L2039.91 742.547ZM2036.09 731.49H2036.03L2033.32 739.133H2038.71L2036.09 731.49ZM2025.16 741.146C2025.16 745.289 2021.69 747.185 2017.81 747.185H2007.72V726.356H2017.55C2021.81 726.356 2024.17 727.902 2024.17 731.49C2024.17 733.649 2023.12 734.991 2021.34 735.866C2023.91 736.595 2025.16 738.55 2025.16 741.146ZM2016.64 729.915H2012.29V734.787H2016.96C2018.63 734.787 2019.73 733.999 2019.73 732.307C2019.73 730.644 2018.63 729.915 2016.64 729.915ZM2017.31 737.908H2012.29V743.626H2017.23C2019.36 743.626 2020.58 742.751 2020.58 740.884C2020.58 738.871 2019.38 737.908 2017.31 737.908ZM2009.08 784.685H2004.5V763.856H2009.08V784.685ZM2003.42 743.364C2003.51 745.347 2003.71 746.456 2004.24 747.185H1999.65C1999.3 746.31 1999.19 745.056 1999.07 743.568C1998.84 740.65 1998.37 739.046 1995.48 739.046H1990.87V747.185H1986.29V726.356H1997.53C2001.2 726.356 2003.62 728.894 2003.62 732.103C2003.62 734.728 2002.51 736.45 2000.33 737.325V737.383C2003.24 738.2 2003.33 741.409 2003.42 743.364ZM1995.89 729.915H1990.87V735.779H1995.92C1997.85 735.779 1999.04 734.991 1999.04 732.803C1999.04 730.732 1997.9 729.915 1995.89 729.915ZM2001.73 767.707H1995.48V784.685H1990.9V767.707H1984.66V763.856H2001.73V767.707ZM1973.65 785.181C1967.61 785.181 1964.78 782.089 1964.78 776.896V763.856H1969.36V776.896C1969.36 779.959 1970.71 781.33 1973.65 781.33C1976.86 781.33 1977.97 779.959 1977.97 776.896V763.856H1982.55V776.896C1982.55 782.089 1979.55 785.181 1973.65 785.181ZM1973.65 747.681C1967.61 747.681 1964.78 744.589 1964.78 739.396V726.356H1969.36V739.396C1969.36 742.459 1970.71 743.83 1973.65 743.83C1976.86 743.83 1977.97 742.459 1977.97 739.396V726.356H1982.55V739.396C1982.55 744.589 1979.55 747.681 1973.65 747.681ZM2017.65 780.834H2027.8V784.685H2013.07V763.856H2017.65V780.834ZM2034.79 784.685H2030.21V763.856H2034.79V784.685ZM2054.21 767.707H2047.97V784.685H2043.39V767.707H2037.14V763.856H2054.21V767.707Z" fill="white"/>
</svg>
